<svg viewBox="0 0 1432 400" xmlns="http://www.w3.org/2000/svg"><g><g><g><g><g><line x1="41.171875" y1="365" x2="36.171875" y2="365" style="visibility: inherit;" fill="rgb(0, 0, 0)" stroke="rgb(204, 204, 204)" stroke-width="1px"></line><line x1="41.171875" y1="328.49999999999994" x2="36.171875" y2="328.49999999999994" style="visibility: inherit;" fill="rgb(0, 0, 0)" stroke="rgb(204, 204, 204)" stroke-width="1px"></line><line x1="41.171875" y1="292" x2="36.171875" y2="292" style="visibility: inherit;" fill="rgb(0, 0, 0)" stroke="rgb(204, 204, 204)" stroke-width="1px"></line><line x1="41.171875" y1="255.49999999999997" x2="36.171875" y2="255.49999999999997" style="visibility: inherit;" fill="rgb(0, 0, 0)" stroke="rgb(204, 204, 204)" stroke-width="1px"></line><line x1="41.171875" y1="219.00000000000003" x2="36.171875" y2="219.00000000000003" style="visibility: inherit;" fill="rgb(0, 0, 0)" stroke="rgb(204, 204, 204)" stroke-width="1px"></line><line x1="41.171875" y1="182.5" x2="36.171875" y2="182.5" style="visibility: inherit;" fill="rgb(0, 0, 0)" stroke="rgb(204, 204, 204)" stroke-width="1px"></line><line x1="41.171875" y1="145.99999999999997" x2="36.171875" y2="145.99999999999997" style="visibility: inherit;" fill="rgb(0, 0, 0)" stroke="rgb(204, 204, 204)" stroke-width="1px"></line><line x1="41.171875" y1="109.50000000000001" x2="36.171875" y2="109.50000000000001" style="visibility: inherit;" fill="rgb(0, 0, 0)" stroke="rgb(204, 204, 204)" stroke-width="1px"></line><line x1="41.171875" y1="72.99999999999999" x2="36.171875" y2="72.99999999999999" style="visibility: inherit;" fill="rgb(0, 0, 0)" stroke="rgb(204, 204, 204)" stroke-width="1px"></line><line x1="41.171875" y1="36.500000000000036" x2="36.171875" y2="36.500000000000036" style="visibility: inherit;" fill="rgb(0, 0, 0)" stroke="rgb(204, 204, 204)" stroke-width="1px"></line><line x1="41.171875" y1="0" x2="36.171875" y2="0" style="visibility: inherit;" fill="rgb(0, 0, 0)" stroke="rgb(204, 204, 204)" stroke-width="1px"></line></g><g transform="translate(31.171875, 0)"><text x="0" y="365" dx="0em" dy="0.3em" style="text-anchor: end; visibility: hidden; font-family: Roboto, sans-serif; font-size: 12px; font-weight: 200;" fill="rgb(33, 33, 33)" stroke="none" stroke-width="1px">0.3</text><text x="0" y="328.49999999999994" dx="0em" dy="0.3em" style="text-anchor: end; visibility: inherit; font-family: Roboto, sans-serif; font-size: 12px; font-weight: 200;" fill="rgb(33, 33, 33)" stroke="none" stroke-width="1px">0.4</text><text x="0" y="292" dx="0em" dy="0.3em" style="text-anchor: end; visibility: inherit; font-family: Roboto, sans-serif; font-size: 12px; font-weight: 200;" fill="rgb(33, 33, 33)" stroke="none" stroke-width="1px">0.5</text><text x="0" y="255.49999999999997" dx="0em" dy="0.3em" style="text-anchor: end; visibility: inherit; font-family: Roboto, sans-serif; font-size: 12px; font-weight: 200;" fill="rgb(33, 33, 33)" stroke="none" stroke-width="1px">0.6</text><text x="0" y="219.00000000000003" dx="0em" dy="0.3em" style="text-anchor: end; visibility: inherit; font-family: Roboto, sans-serif; font-size: 12px; font-weight: 200;" fill="rgb(33, 33, 33)" stroke="none" stroke-width="1px">0.7</text><text x="0" y="182.5" dx="0em" dy="0.3em" style="text-anchor: end; visibility: inherit; font-family: Roboto, sans-serif; font-size: 12px; font-weight: 200;" fill="rgb(33, 33, 33)" stroke="none" stroke-width="1px">0.8</text><text x="0" y="145.99999999999997" dx="0em" dy="0.3em" style="text-anchor: end; visibility: inherit; font-family: Roboto, sans-serif; font-size: 12px; font-weight: 200;" fill="rgb(33, 33, 33)" stroke="none" stroke-width="1px">0.9</text><text x="0" y="109.50000000000001" dx="0em" dy="0.3em" style="text-anchor: end; visibility: inherit; font-family: Roboto, sans-serif; font-size: 12px; font-weight: 200;" fill="rgb(33, 33, 33)" stroke="none" stroke-width="1px">1</text><text x="0" y="72.99999999999999" dx="0em" dy="0.3em" style="text-anchor: end; visibility: inherit; font-family: Roboto, sans-serif; font-size: 12px; font-weight: 200;" fill="rgb(33, 33, 33)" stroke="none" stroke-width="1px">1.1</text><text x="0" y="36.500000000000036" dx="0em" dy="0.3em" style="text-anchor: end; visibility: inherit; font-family: Roboto, sans-serif; font-size: 12px; font-weight: 200;" fill="rgb(33, 33, 33)" stroke="none" stroke-width="1px">1.2</text><text x="0" y="0" dx="0em" dy="0.3em" style="text-anchor: end; visibility: hidden; font-family: Roboto, sans-serif; font-size: 12px; font-weight: 200;" fill="rgb(33, 33, 33)" stroke="none" stroke-width="1px">1.3</text></g><line x1="41.171875" y1="0" x2="41.171875" y2="365" fill="rgb(0, 0, 0)" stroke="rgb(204, 204, 204)" stroke-width="1px"></line></g></g><g transform="translate(41, 0)" clip-path="url(#clip_0)"><clipPath id="clip_0"><rect width="1390" height="365"></rect></clipPath><g><g><g><line x1="0" y1="0" x2="0" y2="365" fill="rgb(0, 0, 0)" stroke="rgb(66, 66, 66)" stroke-width="1px" opacity="0.25"></line><line x1="198.68973214285714" y1="0" x2="198.68973214285714" y2="365" fill="rgb(0, 0, 0)" stroke="rgb(66, 66, 66)" stroke-width="1px" opacity="0.25"></line><line x1="397.3794642857143" y1="0" x2="397.3794642857143" y2="365" fill="rgb(0, 0, 0)" stroke="rgb(66, 66, 66)" stroke-width="1px" opacity="0.25"></line><line x1="596.0691964285714" y1="0" x2="596.0691964285714" y2="365" fill="rgb(0, 0, 0)" stroke="rgb(66, 66, 66)" stroke-width="1px" opacity="0.25"></line><line x1="794.7589285714286" y1="0" x2="794.7589285714286" y2="365" fill="rgb(0, 0, 0)" stroke="rgb(66, 66, 66)" stroke-width="1px" opacity="0.25"></line><line x1="993.4486607142858" y1="0" x2="993.4486607142858" y2="365" fill="rgb(0, 0, 0)" stroke="rgb(66, 66, 66)" stroke-width="1px" opacity="0.25"></line><line x1="1192.138392857143" y1="0" x2="1192.138392857143" y2="365" fill="rgb(0, 0, 0)" stroke="rgb(66, 66, 66)" stroke-width="1px" opacity="0.25"></line><line x1="1390.828125" y1="0" x2="1390.828125" y2="365" fill="rgb(0, 0, 0)" stroke="rgb(66, 66, 66)" stroke-width="1px" opacity="0.25"></line></g><g><line x1="0" y1="365" x2="1390.828125" y2="365" fill="rgb(0, 0, 0)" stroke="rgb(66, 66, 66)" stroke-width="1px" opacity="0.25"></line><line x1="0" y1="328.49999999999994" x2="1390.828125" y2="328.49999999999994" fill="rgb(0, 0, 0)" stroke="rgb(66, 66, 66)" stroke-width="1px" opacity="0.25"></line><line x1="0" y1="292" x2="1390.828125" y2="292" fill="rgb(0, 0, 0)" stroke="rgb(66, 66, 66)" stroke-width="1px" opacity="0.25"></line><line x1="0" y1="255.49999999999997" x2="1390.828125" y2="255.49999999999997" fill="rgb(0, 0, 0)" stroke="rgb(66, 66, 66)" stroke-width="1px" opacity="0.25"></line><line x1="0" y1="219.00000000000003" x2="1390.828125" y2="219.00000000000003" fill="rgb(0, 0, 0)" stroke="rgb(66, 66, 66)" stroke-width="1px" opacity="0.25"></line><line x1="0" y1="182.5" x2="1390.828125" y2="182.5" fill="rgb(0, 0, 0)" stroke="rgb(66, 66, 66)" stroke-width="1px" opacity="0.25"></line><line x1="0" y1="145.99999999999997" x2="1390.828125" y2="145.99999999999997" fill="rgb(0, 0, 0)" stroke="rgb(66, 66, 66)" stroke-width="1px" opacity="0.25"></line><line x1="0" y1="109.50000000000001" x2="1390.828125" y2="109.50000000000001" fill="rgb(0, 0, 0)" stroke="rgb(66, 66, 66)" stroke-width="1px" opacity="0.25"></line><line x1="0" y1="72.99999999999999" x2="1390.828125" y2="72.99999999999999" fill="rgb(0, 0, 0)" stroke="rgb(66, 66, 66)" stroke-width="1px" opacity="0.25"></line><line x1="0" y1="36.500000000000036" x2="1390.828125" y2="36.500000000000036" fill="rgb(0, 0, 0)" stroke="rgb(66, 66, 66)" stroke-width="1px" opacity="0.25"></line><line x1="0" y1="0" x2="1390.828125" y2="0" fill="rgb(0, 0, 0)" stroke="rgb(66, 66, 66)" stroke-width="1px" opacity="0.25"></line></g></g></g><g><g><line x1="0" y1="474.5" x2="1390.828125" y2="474.5" fill="rgb(0, 0, 0)" stroke="rgb(153, 153, 153)" stroke-width="1.5px"></line></g></g><g><g><line x1="-32227275.863839284" y1="0" x2="-32227275.863839284" y2="365" fill="rgb(0, 0, 0)" stroke="rgb(153, 153, 153)" stroke-width="1.5px"></line></g></g><g><g><g><g><g><path stroke="rgb(0, 119, 187)" stroke-width="2px" d="M46.293824523809526,18.262618303298968L49.071470184771826,110.17134224157986L51.736653777901786,141.84672710928015L54.41079680617559,165.89279320199662L57.08184910528274,185.98693376402656L59.75245987165179,190.5307876819985L62.42588540922619,194.51962166216074L65.07660880518353,197.48676322974532L67.7447359499008,202.87754940800187L70.42629304873512,205.64374564056556L73.09375789434523,207.0988869624929L75.88834737413194,209.55742089439772L78.54654003224206,215.37765126660835L81.22121657924107,215.9523870831352L83.89309675223214,217.20539124236421L86.54795951760913,219.9667934716091L89.20063301649306,224.88849621810363L91.85775863715277,226.075983899043L94.50027688306052,230.60888924145723L97.14137854476687,226.47305042161923L99.7926354594494,229.32368893251925L102.57475163938491,229.2919856985692L105.2314909188988,228.20806841054798L107.88120246899801,234.28001675131887L110.54474871155755,236.42747004358392L113.1847097470238,233.45123232352088L115.83066826884921,233.87393370578226L118.48676364645337,235.33978228913637L121.1281964577133,237.77161716869495L123.80173237847222,242.30714167614647L126.45107598462302,240.6718365005223L129.23747871155754,240.25257966726275L131.89219429935517,240.72588585559396L134.53541163876488,238.78046528951975L137.18920736669148,239.6766745205797L139.8337493043155,242.0925524176683L142.48723227988592,239.4200401505439L145.14570089595733,240.68333830191398L147.7978592733135,241.15292416007242L150.4529979966518,241.27585873956616L153.114299781126,242.53034459756967L155.94167306671628,241.26894821479183L158.60063840711805,244.30785219975672L161.25434214905755,244.6904096122299L163.9055438721478,246.21994876622654L166.55542099702382,243.10805665686573L169.22295943142362,242.26260373795864L171.8785396875,245.05230713292264L174.53411994357637,247.1545444426875L177.19280932601686,249.9788282883154L179.85278651227677,252.4225297923409L182.6765355499752,250.86540673746637L185.3357952455357,249.17076732432758L187.99748337115577,248.7034118398621L190.63428008866566,246.9867034500374L193.289989125124,250.01113665571853L195.94832896081348,250.663156029342L198.6077542311508,247.56261128533478L201.26627803881448,251.12753940628969L203.91917230406744,249.46099149034413L206.56102825086805,251.95441856863332L209.37697687686014,255.60673052687144L212.03480159102182,250.83447443177135L214.67130395337304,251.2018916770161L217.3155331386409,251.8410685005244L219.95459271143355,253.67435180999442L222.60042245287698,254.9431970451103L225.26540367683535,256.16422322225577L227.91706532986112,254.58580510920305L230.56679527715775,254.72048525245606L233.20627798549106,255.21299120778733L236.03558297681053,254.59865810981916L238.69684796688986,256.5243283382795L241.3429904606895,256.2598658379584L244.0034827684772,256.4441374013593L246.63709677083332,259.33089476630914L249.3037337425595,261.0037323058565L251.9655506485615,259.1008949569796L254.61897843253968,257.3925808929748L257.28138404885914,262.85640511834924L259.92252250496034,258.99243176737957L262.73620827566964,259.2057660195825L265.38626937251985,262.1234227910034L268.0292659455605,263.3253806363808L270.6821234164187,262.7555813053516L273.3276955970982,261.70385225698226L275.96342527715774,263.5227831515738L278.60736010726686,263.6572670108763L281.25953688182045,264.8085156822554L283.9090276655506,263.4467507814068L286.5484919766865,265.4678240519785L289.392845875496,266.6471501963489L292.0476166548859,265.59228052650485L294.6996278546627,264.4117927535856L297.35384671812994,263.78024601864246L300.0061154786706,261.8711453633107L302.6497927480159,260.8969316631377L305.2947026295883,265.00631885320894L307.95105556795636,264.09134912396917L310.59166050533236,263.64259249165104L313.23550334945435,264.1541152930621L316.0807403137401,263.8187352356829L318.74137979910716,263.3375308072292L321.4027183779762,264.6447815832706L324.0424218526786,265.5192057385267L326.705876109251,265.6484644697551L329.36162194010416,266.860494272943L332.0209552244544,268.168052095073L334.6744565972222,267.38646779205783L337.3115660670883,267.3796921851037L339.9649938510665,268.1033600209441L342.82001812437994,268.99595851728867L345.459923968254,268.41122646228916L348.1123215091766,269.1057220829103L350.7679385596478,268.31145047109646L353.41207575892855,267.38827486127207L356.06112500992066,267.41124608555646L358.7026314099702,269.20488716237224L361.3601433717758,269.5245253694793L364.01506132874505,269.463410048844L366.6681947575645,266.081333844543L369.510230609499,266.3280953810323L372.16605002914184,265.8323111709235L374.82560407986114,268.1359460474728L377.46666894717265,267.95575655631166L380.12315066592265,272.6533604843322L382.7896956516617,272.4473387477906L385.434164000496,273.67572029132236L388.07504489583334,276.28220810782733L390.7452325266617,276.9721290773261L393.4018062313988,275.6115699809929L396.25572667286707,275.5565167362826L398.89934875062005,273.21605271385033L401.53671578125,271.5650207106276L404.1770631578621,276.2288253663461L406.8244566610863,275.0203266607006L409.48603440352184,275.27659522146183L412.1351204489087,274.9068032902077L414.7903143638393,272.623997250526L417.4268535205853,272.1381192972808L420.06206807911707,272.07872679441033L422.9089607911706,272.58010333568257L425.5612663461062,269.8700636660831L428.20599225570436,273.59606892492917L430.8446654873512,276.66186830167754L433.4904032428076,277.16645151413485L436.1337677597966,277.20697466856285L438.7864228614831,278.5840893937027L441.42436020523314,276.37386016584776L444.0602186656746,275.5662312511237L446.69482611669144,278.3534540181706L449.540798968874,278.3803509349846L452.1848625793651,279.15383579868893L454.8174095442708,281.1345859682314L457.46579649615575,279.705958980917L460.1009742602927,279.89555131481336L462.7310376035466,278.1917533562385L465.38494371465777,276.64933744566366L468.02806906808036,277.36455104048395L470.6748922581845,278.99971244203863L473.3099412419395,282.5080151756591L476.1731890625,281.5720223206668L478.82301099578376,280.48818522315537L481.4872379346478,283.28922427789877L484.1539300979663,288.2084897289511L486.81440400855655,286.1859116203613L489.4752274658978,285.86632342876857L492.1241847309028,286.96926945637057L494.7699960751488,282.9183300965885L497.41220156870037,282.4774071109587L500.0541127070932,282.28982725399965L502.9356473418899,281.2843236570207L505.5820473964534,281.8375335304195L508.2163788895089,281.5284571955823L510.8580508643353,280.23340258764233L513.5125640829613,283.1119263044477L516.1691009933036,283.89432038438736L518.8147835571676,283.83965398650173L521.4449388864087,282.4252261510493L524.093344235491,283.3863405978574L526.7313551680307,283.68139274571996L529.630238359995,285.24974295150815L532.2640915259177,284.3378183237819L534.9161027256945,280.84519237669224L537.5507653683036,280.89341618114946L540.1886291232638,281.48339600504755L542.8268976165675,278.32467300835003L545.4755605264137,277.1092801400812L548.1152823983135,276.9913002961813L550.7566416207837,279.0772548192857L553.4022321986607,280.87786617908716L556.2800873939732,277.82001726547355L558.9226240370783,276.82184596244707L561.5746536340525,279.9373243116933L564.2141179451885,284.5011319383822L566.8741135286458,283.3263748126677L569.516300625,284.28512815976245L572.1556729501488,282.68764835261715L574.8137368278769,282.25770835485747L577.4461918067956,283.3943684382661L580.0944499782986,284.7648965050916L582.9808414732142,283.0128957067404L585.6225870368304,283.24606666008555L588.2587950440228,285.41420018609784L590.9149088188244,284.69863055821634L593.5521470690725,282.29041027527273L596.2033855865575,286.8914578392803L598.8597937165179,287.0728402648146L601.5131663089038,287.65612433357893L604.1612037140377,285.0017344385299L606.8076037686012,285.40698725131045L609.7246817888145,283.32721356224295L612.3651395486111,282.6928739197759L615.0081913132441,283.4426731321353L617.6515558302332,283.59177796299747L620.2989309362599,288.8561825078672L622.9627715339782,283.9836628219108L625.6292797253224,282.4999313451711L628.2737848685516,283.15903978612675L630.9146657638889,284.8879004857353L633.558379827629,284.9764770156966L636.4550737531001,285.6351954247259L639.1131192336309,285.1257488346329L641.7781004575893,285.1216456156154L644.4222192596726,285.39198861409005L647.0750583333333,285.24760126628166L649.7286148976934,285.58304367757677L652.3786208029514,285.51032728824055L655.0234754929315,284.9331391505093L657.6762777721974,284.5622232531282L660.3336057620288,285.43911488544103L663.254308030134,288.8664036473554L665.9040195802331,288.37809288105456L668.5503828404018,289.2683903199442L671.2054663721478,289.69230312993835L673.8592253056795,295.13836616650474L676.5180250713046,295.25470649628545L679.1657129296875,292.6662009257487L681.8257637047371,292.43506322065093L684.4826501618304,290.1002558765847L687.1354340438988,289.60605955048476L690.0387693576389,289.0330873249605L692.690228641493,291.0730430972905L695.3220765128968,292.5828785993033L697.9791469419644,289.2825637192594L700.6248295058284,287.96566275453824L703.2881365848215,290.0858397182362L705.9362291815476,288.0620086329766L708.5956728490823,290.25922397686253L711.2344380667163,291.0268166582339L713.8777289949156,290.29238044312484L716.7696028546627,291.0530730273108L719.4197191431051,292.1042865421825L722.0516406032987,293.90377848263984L724.7143773691716,293.3768009644361L727.3584041852678,293.7695556403109L730.0056321137153,294.8127626113671L732.6483527287947,293.6745018017743L735.3079803683037,295.04122374461014L737.9583174231151,296.4649435207924L740.5911955375743,297.15980964919453L743.4610111576142,296.86929796545377L746.1069144878472,298.7969680900955L748.7535905003721,297.66452169809475L751.3959063771082,295.1853801346592L754.0277726457094,296.72019586418656L756.6613866480656,294.3213093154145L759.2998575105406,291.98457450410524L761.9364334616815,291.5628351745757L764.573340562376,293.9882318599557L767.2093278031994,295.8299231047939L770.0984236861359,295.43131576897645L772.7547398301092,292.7148652569117L775.4167039136904,293.05033791344135L778.0543652994792,295.4990192621945L780.7033777560763,295.4851096101641L783.3472573945933,295.82590257592676L786.0195055115328,295.48217705046886L788.6776061836557,294.08201012367476L791.3272993365576,294.928570737241L793.9670396056548,294.0611784702502L796.8417856746031,293.00028358369286L799.4971819587054,292.03725184922416L802.148751625744,293.31570046928624L804.7873328714038,292.4703150000088L807.4458566790674,293.2488517111938L810.0892395932539,292.19550128504414L812.7467331578621,295.08245434447645L815.3921581609623,295.2598225603166L818.0506083798363,296.3009125834392L820.7093529538691,295.9680591887531L823.6067643700396,296.228241909845L826.2447017137896,298.6960309285664L828.8842764081102,296.5593906755308L831.5455965897818,297.8279883616992L834.2079286173115,297.61011094312954L836.848643937872,297.98327627112866L839.4921004408483,300.23425836630946L842.1327605698165,301.28866844437374L844.7916891158234,300.1411769507549L847.4449881194196,298.5952324776646L850.3252901419891,298.0762589530093L852.9924790296379,298.8440507393107L855.6400749020338,298.67649844202526L858.2736521099949,299.1206306890394L860.9390380722965,299.97888452830966L863.59414000124,300.1915324971946L866.2607953701637,302.46455008161547L868.9150510280258,303.1363409813886L871.5570909468006,305.07411571697355L874.2027551134672,301.98273225872754L877.1111312593006,302.51934527542414L879.77353687562,302.5941365287225L882.4321526692707,303.2461092450145L885.0829496540179,304.84775380659835L887.7371685174851,304.303714329674L890.3869720535714,305.0944234659626L893.0461765575396,303.71013554559624L895.7143404966519,302.4724552292496L898.3773532204862,300.3043735805951L901.013800391245,301.0037784276453L903.9196561210318,301.1622811289643L906.5807923307292,300.9640414290027L909.2283330115328,300.04033804364855L911.8845387723214,300.6224841906967L914.5384264862352,300.29100533639246L917.1905480691964,301.6443960134552L919.8389534182788,301.98353271467147L922.4960422445437,302.3711657521279L925.1457905890378,302.5316872115222L927.7849421478174,303.61735254573955L930.7078336824156,305.81431021764956L933.3603232093253,308.60304956716067L936.0069808246527,307.4869622584422L938.6556805288939,308.1424478791303L941.3215632155258,308.06554956481284L943.9864708506944,307.8235029028981L946.6453626023066,309.4200050732959L949.2873289322916,308.9321328331622L951.9363965804812,305.9005353227088L954.5925839440724,304.58528406758717L957.5066632211061,304.1963765358504L960.151720280258,305.07168992639464L962.7861253621032,306.4643737112688L965.4292507155258,308.94034677396104L968.0771777374752,306.5678087256323L970.7141400297619,306.5770565028747L973.3549841307043,305.92795596906313L976.0004643253968,307.24249998533406L978.6469563659475,306.79640359537393L981.288241999628,305.91936021470576L984.1939689490328,305.9296056412451L986.8557490606399,305.65821317088876L989.5166093123761,305.5463438811386L992.1694667832342,305.14443977898134L994.8181664874753,304.97640392549164L997.4644561588542,304.51302105413146L1000.1208090972221,306.10036848691834L1002.7743656615822,308.60368363625486L1005.428823688616,309.47201011359834L1008.0958470014881,308.80144296083324L1011.0083073251488,308.68562070038615L1013.6639243756201,310.8944893913611L1016.3091838039435,310.6591457444192L1018.9475626804316,308.7411268166325L1021.6035476748513,310.2477330748476L1024.2568650756448,312.0962830720743L1026.9009654805307,309.53578977409813L1029.5502906894842,308.97244329153034L1032.194299108383,307.8028714636327L1034.8376820225694,309.217943510298L1037.7580347439236,307.66568253199046L1040.40669765377,308.0596147845283L1043.0621491294644,308.95570716243157L1045.7211328670635,308.5975042423876L1048.3693910385664,308.73365094501895L1051.0165453782242,307.55640444427894L1053.673542218502,306.59368054309857L1056.323603315352,308.0458492483931L1058.9668758463542,308.021897528166L1061.6098724193948,308.0898883083251L1064.5351555896577,309.5965402198131L1067.1971380704365,310.5316570269966L1069.8464448821924,310.128815088703L1072.4815858519346,309.44619644240083L1075.1384171174357,312.0962657855262L1077.785074732763,312.1136880090399L1080.4311252405755,309.643376608898L1083.0839459170386,308.20622853657636L1085.7341173970735,309.11548031826294L1088.3684672873264,310.63886548027494L1091.298588920511,311.03075972866435L1093.9536908494545,312.1179581903735L1096.5913706324404,311.4112452907299L1099.238598560888,312.3059547602001L1101.8935349150545,310.9244261728324L1104.5472570541915,309.8173962503112L1107.1896281225197,312.5249609854601L1109.846293813244,312.7648034460453L1112.4948095455109,315.93117391352763L1115.1473726612103,313.8590159881845L1118.0690867751737,318.11608580996716L1120.7085878807045,319.60753934199715L1123.3597712065973,318.8041048058615L1126.0195828180804,319.6757356204889L1128.6767084387402,318.49233498541327L1131.3457922377231,317.4008279366758L1134.0134042609127,317.73395221414717L1136.6754419332838,316.2970266081276L1139.3358054606895,316.13193405703254L1141.9815984077381,316.3205077743616L1144.9096227604166,316.1915701755307L1147.5819260689484,313.6666961961864L1150.2318031938244,312.91237608295177L1152.8723529396082,314.6327320153079L1155.5152023350695,314.82139892441273L1158.1719968061757,315.95125421772934L1160.8247070994544,314.8501670569888L1163.4803609443204,315.3617638791301L1166.1332000179812,315.4610262118473L1168.7872165122767,313.4844259484001L1171.727419809648,313.7627854910564L1174.3792838318452,312.40900317200635L1177.0430692379712,312.6597047623328L1179.6929095684523,313.9408997027061L1182.3449391654267,313.8327401798885L1185.0014944729662,313.23968661608296L1187.6520890885417,315.25402734075965L1190.3093434895834,315.02321117981995L1192.9589078621032,314.7253933582123L1195.610091187996,314.82840528495444L1198.4778095275299,314.80881962941845L1201.1319731994047,314.6066890219312L1203.8226921025546,314.48405069111607L1206.6145036055307,312.2238721460009L1209.3246315519593,312.8011783299488L1212.013731501736,315.17844339249194L1214.722479658358,315.0779111759521L1217.4385315023562,314.49762372849847L1220.1536266920882,314.20584536356637" style="fill: none;" fill="none"></path></g></g></g></g><g opacity="0.2"><g><g><g><path stroke="rgb(0, 119, 187)" stroke-width="2px" d="M46.293824523809526,18.262618303298968L49.071470184771826,184.801226079464L51.736653777901786,188.4521145820618L54.41079680617559,214.14678734540942L57.08184910528274,235.04609149694446L59.75245987165179,203.22845232486728L62.42588540922619,206.8096573352814L65.07660880518353,207.31945854425433L67.7447359499008,221.7606933116913L70.42629304873512,215.75784009695056L73.09375789434523,212.6006753444672L75.88834737413194,219.10173398256305L78.54654003224206,238.45066201686862L81.22121657924107,218.26914352178576L83.89309675223214,222.32412230968478L86.54795951760913,231.36905264854434L89.20063301649306,245.3867692947388L91.85775863715277,231.05616223812106L94.50027688306052,249.72609502077106L97.14137854476687,208.95135325193408L99.7926354594494,241.4448330998421L102.57475163938491,229.1567812561989L105.2314909188988,223.57440036535266L107.88120246899801,260.2876366376877L110.54474871155755,245.64002734422687L113.1847097470238,220.66688221693042L115.83066826884921,235.69151771068576L118.48676364645337,241.64811831712726L121.1281964577133,248.2442493438721L123.80173237847222,261.8500654101372L126.45107598462302,233.62237703800204L129.23747871155754,238.44459217786792L131.89219429935517,242.76755762100223L134.53541163876488,230.38660895824435L137.18920736669148,243.54427945613864L139.8337493043155,252.51996141672137L142.48723227988592,227.88346391916278L145.14570089595733,246.13725376129153L147.7978592733135,243.18039369583133L150.4529979966518,241.80667382478717L153.114299781126,247.94734936952594L155.94167306671628,235.82185608148578L158.60063840711805,257.43124437332153L161.25434214905755,246.3425187468529L163.9055438721478,252.82556366920474L166.55542099702382,229.66847521066668L169.22295943142362,238.6112190485001L171.8785396875,257.1007753610611L174.53411994357637,256.23400670289993L177.19280932601686,262.17687946558L179.85278651227677,262.9769234061241L182.6765355499752,244.1401244401932L185.3357952455357,241.85151231288913L187.99748337115577,246.68486636877063L190.63428008866566,239.5720810890198L193.289989125124,263.0739755630493L195.94832896081348,253.47930055856708L198.6077542311508,234.17099040746692L201.26627803881448,266.52490746974945L203.91917230406744,242.26295602321628L206.56102825086805,262.72386115789413L209.37697687686014,271.3815618753433L212.03480159102182,230.22244048118594L214.67130395337304,252.78881829977038L217.3155331386409,254.60176390409472L219.95459271143355,261.5925650000572L222.60042245287698,260.42352271080017L225.26540367683535,261.4380125403404L227.91706532986112,247.76838701963428L230.56679527715775,255.30218851566318L233.20627798549106,257.340196788311L236.03558297681053,251.94526296854022L238.69684796688986,264.8415822982788L241.3429904606895,255.11761319637301L244.0034827684772,257.24003356695175L246.63709677083332,271.7992277145386L249.3037337425595,268.228965818882L251.9655506485615,250.88225793838504L254.61897843253968,250.01411867141726L257.28138404885914,286.4554740190506L259.92252250496034,242.30335634946826L262.73620827566964,260.12718838453293L265.38626937251985,274.72521644830704L268.0292659455605,268.51681542396545L270.6821234164187,260.2945331931114L273.3276955970982,257.16127794981L275.96342527715774,271.3790164589882L278.60736010726686,264.2381228208542L281.25953688182045,269.7809301018715L283.9090276655506,257.5650854110718L286.5484919766865,274.197140455246L289.392845875496,271.7408354282379L292.0476166548859,261.0361413359642L294.6996278546627,259.3130902647972L297.35384671812994,261.05250161886215L300.0061154786706,253.62545531988147L302.6497927480159,256.6891576051712L305.2947026295883,282.7553741335869L307.95105556795636,260.1394585967064L310.59166050533236,261.70434576272964L313.23550334945435,266.3634584546089L316.0807403137401,262.3701788187027L318.74137979910716,261.25913721323013L321.4027183779762,270.29099237918854L324.0424218526786,269.2959738969803L326.705876109251,266.20675218105316L329.36162194010416,272.09543150663376L332.0209552244544,273.81558907032013L334.6744565972222,264.0106887817383L337.3115660670883,267.35042732954025L339.9649938510665,271.22898918390274L342.82001812437994,272.8512243628502L345.459923968254,265.8856816291809L348.1123215091766,272.1053521037102L350.7679385596478,264.8808730840683L353.41207575892855,263.4009419083595L356.06112500992066,267.5104622244835L358.7026314099702,276.95189011096954L361.3601433717758,270.9050903916359L364.01506132874505,269.1994438767433L366.6681947575645,251.47364300489429L369.510230609499,267.3938952088356L372.16605002914184,263.69094532728195L374.82560407986114,278.0856881737709L377.46666894717265,267.1774913072586L380.12315066592265,292.94301149249077L382.7896956516617,271.5575001835823L385.434164000496,278.98128312826157L388.07504489583334,287.54001718759537L390.7452325266617,279.95200049877167L393.4018062313988,269.7351126074791L396.25572667286707,275.3187335729599L398.89934875062005,263.1072400212288L401.53671578125,264.43396759033203L404.1770631578621,296.3724922835827L406.8244566610863,269.80064076185226L409.48603440352184,276.3834573030472L412.1351204489087,273.30961686372757L414.7903143638393,262.76421797275543L417.4268535205853,270.03954005241394L420.06206807911707,271.8222017288208L422.9089607911706,274.7456232905388L425.5612663461062,258.1649987101555L428.20599225570436,289.68924057483673L430.8446654873512,289.9035124182701L433.4904032428076,279.34582155942917L436.1337677597966,277.382000207901L438.7864228614831,284.5320529937744L441.42436020523314,266.82755094766617L444.0602186656746,272.0779616832733L446.69482611669144,290.39188426733017L449.540798968874,278.49652272462845L452.1848625793651,282.4946321249008L454.8174095442708,289.6897409558296L457.46579649615575,273.5355062484741L460.1009742602927,280.7144288420677L462.7310376035466,270.83279621601105L465.38494371465777,269.98741340637207L468.02806906808036,280.4536650776863L470.6748922581845,286.0622180700302L473.3099412419395,297.6608971953392L476.1731890625,277.5293297767639L478.82301099578376,275.8069313764572L481.4872379346478,295.3873291313648L484.1539300979663,309.45552986860275L486.81440400855655,277.45009553432465L489.4752274658978,284.4859744310379L492.1241847309028,291.7330576181412L494.7699960751488,265.4217196702957L497.41220156870037,280.57299506664276L500.0541127070932,281.4796419143677L502.9356473418899,276.9414038658142L505.5820473964534,284.2269293665886L508.2163788895089,280.1935104727745L510.8580508643353,274.6398688554764L513.5125640829613,295.54469895362854L516.1691009933036,287.2735969424248L518.8147835571676,283.60354167222977L521.4449388864087,276.3161016702652L524.093344235491,287.53753703832626L526.7313551680307,284.955766916275L529.630238359995,292.0236810743809L532.2640915259177,280.3990800380707L534.9161027256945,265.76002073287964L537.5507653683036,281.1017019748688L540.1886291232638,284.031606733799L542.8268976165675,264.68167793750763L545.4755605264137,271.8598173260689L548.1152823983135,276.4817277789116L550.7566416207837,288.0868030786514L553.4022321986607,288.6549748182297L556.2800873939732,264.61271238327026L558.9226240370783,272.51059544086456L561.5746536340525,293.39353930950165L564.2141179451885,304.21289679408073L566.8741135286458,278.2524238228798L569.516300625,288.4261266589165L572.1556729501488,275.7878951430321L574.8137368278769,280.40073347091675L577.4461918067956,288.30377262830734L580.0944499782986,290.6844113469124L582.9808414732142,275.44574332237244L585.6225870368304,284.2531667351723L588.2587950440228,294.77869179844856L590.9149088188244,281.60797876119614L593.5521470690725,271.8889482021332L596.2033855865575,306.764067530632L598.8597937165179,287.85625797510147L601.5131663089038,290.17541509866714L604.1612037140377,273.53702914714813L606.8076037686012,287.1573345065117L609.7246817888145,274.3443612456322L612.3651395486111,279.9530665278435L615.0081913132441,286.68116760253906L617.6515558302332,284.2357839345932L620.2989309362599,311.59392979741096L622.9627715339782,262.9385246038437L625.6292797253224,276.09147411584854L628.2737848685516,286.0058273077011L630.9146657638889,292.3551073372364L633.558379827629,285.35905224084854L636.4550737531001,288.4802983403206L639.1131192336309,282.9253731369972L641.7781004575893,285.103923201561L644.4222192596726,286.55964028835297L647.0750583333333,284.62397080659866L649.7286148976934,287.0318694114685L652.3786208029514,285.19625437259674L655.0234754929315,282.44017761945724L657.6762777721974,282.96018224954605L660.3336057620288,289.22654044628143L663.254308030134,303.6693742573261L665.9040195802331,286.2690059542656L668.5503828404018,293.11371755599976L671.2054663721478,291.5232456922531L673.8592253056795,318.66072353720665L676.5180250713046,295.75719770789146L679.1657129296875,281.48605984449387L681.8257637047371,291.4367450475693L684.4826501618304,280.01587522029877L687.1354340438988,287.4715520143509L690.0387693576389,286.5583349466324L692.690228641493,299.8839159011841L695.3220765128968,299.1040830016136L697.9791469419644,275.02801221609116L700.6248295058284,282.2777713537216L703.2881365848215,299.24319979548454L705.9362291815476,279.32078075408936L708.5956728490823,299.7493242919445L711.2344380667163,294.3421637713909L713.8777289949156,287.12024104595184L716.7696028546627,294.33861759305L719.4197191431051,296.6446342766285L722.0516406032987,301.6760521829128L724.7143773691716,291.100706577301L727.3584041852678,295.4659215807915L730.0056321137153,299.31852889060974L732.6483527287947,288.75818383693695L735.3079803683037,300.94429937005043L737.9583174231151,302.61420127749443L740.5911955375743,300.16103994846344L743.4610111576142,295.6145347356796L746.1069144878472,307.12286245822906L748.7535905003721,292.77331706881523L751.3959063771082,284.47759848833084L754.0277726457094,303.349293589592L756.6613866480656,283.9601610302925L759.2998575105406,281.8918688297272L761.9364334616815,289.74128019809723L764.573340562376,304.46388137340546L767.2093278031994,303.7844618856907L770.0984236861359,293.70967131853104L772.7547398301092,280.9821109175682L775.4167039136904,294.49929428100586L778.0543652994792,306.0752387046814L780.7033777560763,295.4250317513943L783.3472573945933,297.2978381514549L786.0195055115328,293.99757531285286L788.6776061836557,288.03448063135147L791.3272993365576,298.5849921107292L793.9670396056548,290.3147820830345L796.8417856746031,288.41812056303024L799.4971819587054,287.8777743577957L802.148751625744,298.8375104665756L804.7873328714038,288.81896924972534L807.4458566790674,296.61146771907806L810.0892395932539,287.6459239125252L812.7467331578621,307.5516345798969L815.3921581609623,296.0259023010731L818.0506083798363,300.79753544926643L820.7093529538691,294.53041580319405L823.6067643700396,297.35200983285904L826.2447017137896,309.35477924346924L828.8842764081102,287.3309231996536L831.5455965897818,303.3072507083416L834.2079286173115,296.6690659224987L836.848643937872,299.5950329005718L839.4921004408483,309.9565852880478L842.1327605698165,305.84282261133194L844.7916891158234,295.1849902868271L847.4449881194196,291.9180680513382L850.3252901419891,295.834735006094L852.9924790296379,302.1602578163147L855.6400749020338,297.9528151154518L858.2736521099949,301.03890401124954L860.9390380722965,303.6858106851578L863.59414000124,301.10999074578285L866.2607953701637,312.28205156326294L868.9150510280258,306.0379059314728L871.5570909468006,313.4436534047127L874.2027551134672,288.63058668375015L877.1111312593006,304.83705681562424L879.77353687562,302.9171710908413L882.4321526692707,306.06207650899887L885.0829496540179,311.765495210886L887.7371685174851,301.9539268016815L890.3869720535714,308.5096139907837L893.0461765575396,297.7311898469925L895.7143404966519,297.1267296075821L898.3773532204862,290.94010603427887L901.013800391245,304.0246121287346L903.9196561210318,301.8468779027462L906.5807923307292,300.10781463980675L909.2283330115328,296.05072554945946L911.8845387723214,303.1368601024151L914.5384264862352,298.85929879546165L917.1905480691964,307.48989191651344L919.8389534182788,303.4483146369457L922.4960422445437,304.0454105734825L925.1457905890378,303.2250033020973L927.7849421478174,308.3065028190613L930.7078336824156,315.3032976090908L933.3603232093253,320.6480301618576L936.0069808246527,302.6664149463177L938.6556805288939,310.97358790040016L941.3215632155258,307.7334142923355L943.9864708506944,306.77806732058525L946.6453626023066,316.31553572416306L949.2873289322916,306.8249399662018L951.9363965804812,292.8066141605377L954.5925839440724,298.9045180082321L957.5066632211061,302.516626983881L960.151720280258,308.85229882597923L962.7861253621032,312.47958239912987L965.4292507155258,319.6344431936741L968.0771777374752,296.32046353816986L970.7141400297619,306.6169990301132L973.3549841307043,303.12439408898354L976.0004643253968,312.9202113747597L978.6469563659475,304.8696468472481L981.288241999628,302.1312792301178L984.1939689490328,305.97385716438293L986.8557490606399,304.48602867126465L989.5166093123761,305.0631637573242L992.1694667832342,303.40855610370636L994.8181664874753,304.2506320476532L997.4644561588542,302.51160141825676L1000.1208090972221,312.9563584625721L1002.7743656615822,319.41587460041046L1005.428823688616,313.2224414944649L1008.0958470014881,305.90516355633736L1011.0083073251488,308.18536710739136L1013.6639243756201,320.4349222481251L1016.3091838039435,309.6426614820957L1018.9475626804316,300.4569174051285L1021.6035476748513,316.75498989224434L1024.2568650756448,320.0804458260536L1026.9009654805307,298.4766378700733L1029.5502906894842,306.5392659306526L1032.194299108383,302.7513165473938L1034.8376820225694,315.32985043525696L1037.7580347439236,300.96123617887497L1040.40669765377,309.7610668540001L1043.0621491294644,312.82606360316277L1045.7211328670635,307.05037248134613L1048.3693910385664,309.3216888308525L1051.0165453782242,302.47170147299767L1053.673542218502,302.4355326294899L1056.323603315352,314.31798216700554L1058.9668758463542,307.9184464812279L1061.6098724193948,308.3835506141186L1064.5351555896577,316.1039942204952L1067.1971380704365,314.570565789938L1069.8464448821924,308.3888807594776L1072.4815858519346,306.49786484241486L1075.1384171174357,323.5423099696636L1077.785074732763,312.1889371871948L1080.4311252405755,298.9737337529659L1083.0839459170386,301.99897196888924L1085.7341173970735,313.0426741838455L1088.3684672873264,317.2185928821564L1091.298588920511,312.72340935468674L1093.9536908494545,316.8137302696705L1096.5913706324404,308.3588470220566L1099.238598560888,316.17033821344376L1101.8935349150545,304.95739844441414L1104.5472570541915,305.03596913814545L1107.1896281225197,324.21933633089066L1109.846293813244,313.80071875452995L1112.4948095455109,329.607199549675L1115.1473726612103,304.90905728936195L1118.0690867751737,336.5030044019222L1120.7085878807045,326.0493492782116L1123.3597712065973,315.3339513838291L1126.0195828180804,323.44043892621994L1128.6767084387402,313.38105139136314L1131.3457922377231,312.68644642829895L1134.0134042609127,319.1727655827999L1136.6754419332838,310.09073090553284L1139.3358054606895,315.4188747406006L1141.9815984077381,317.13498574495316L1144.9096227604166,315.634669482708L1147.5819260689484,302.7613894343376L1150.2318031938244,309.6543551683426L1152.8723529396082,322.0632055103779L1155.5152023350695,315.63627940416336L1158.1719968061757,320.83126750588417L1160.8247070994544,310.0944076180458L1163.4803609443204,317.57142674922943L1166.1332000179812,315.88975501060486L1168.7872165122767,304.94719502329826L1171.727419809648,314.9650618135929L1174.3792838318452,306.56181570887566L1177.0430692379712,313.7425222694874L1179.6929095684523,319.4745714664459L1182.3449391654267,313.36558309197426L1185.0014944729662,310.67819994688034L1187.6520890885417,323.95426493883133L1190.3093434895834,314.02628180384636L1192.9589078621032,313.439073830843L1195.610091187996,315.2733291387558L1198.4778095275299,314.7242262661457L1201.1319731994047,313.7336568236351L1203.8226921025546,313.95435747504234L1206.6145036055307,302.46182438731194L1209.3246315519593,315.29464972019196L1212.013731501736,325.44620525836945L1214.722479658358,314.6436975598335L1217.4385315023562,311.99127581715584L1220.1536266920882,312.94561114907265" style="fill: none;" fill="none"></path></g></g></g></g></g></g><g transform="translate(41, 365)" clip-path="url(#clip_1)"><clipPath id="clip_1"><rect width="1390" height="35"></rect></clipPath><g><g visibility="inherit"><g><g transform="translate(33.114955357142854,0)" style="visibility: inherit;"><text transform="translate(0,14)" style="text-anchor: middle; font-family: Roboto, sans-serif; font-size: 12px; font-weight: 200;" fill="rgb(33, 33, 33)" stroke="none" stroke-width="1px">06 PM</text></g><g transform="translate(99.34486607142857,0)" style="visibility: inherit;"><text transform="translate(0,14)" style="text-anchor: middle; font-family: Roboto, sans-serif; font-size: 12px; font-weight: 200;" fill="rgb(33, 33, 33)" stroke="none" stroke-width="1px">07 PM</text></g><g transform="translate(165.57477678571428,0)" style="visibility: inherit;"><text transform="translate(0,14)" style="text-anchor: middle; font-family: Roboto, sans-serif; font-size: 12px; font-weight: 200;" fill="rgb(33, 33, 33)" stroke="none" stroke-width="1px">08 PM</text></g><g transform="translate(231.8046875,0)" style="visibility: inherit;"><text transform="translate(0,14)" style="text-anchor: middle; font-family: Roboto, sans-serif; font-size: 12px; font-weight: 200;" fill="rgb(33, 33, 33)" stroke="none" stroke-width="1px">09 PM</text></g><g transform="translate(298.0345982142857,0)" style="visibility: inherit;"><text transform="translate(0,14)" style="text-anchor: middle; font-family: Roboto, sans-serif; font-size: 12px; font-weight: 200;" fill="rgb(33, 33, 33)" stroke="none" stroke-width="1px">10 PM</text></g><g transform="translate(364.26450892857144,0)" style="visibility: inherit;"><text transform="translate(0,14)" style="text-anchor: middle; font-family: Roboto, sans-serif; font-size: 12px; font-weight: 200;" fill="rgb(33, 33, 33)" stroke="none" stroke-width="1px">11 PM</text></g><g transform="translate(430.49441964285717,0)" style="visibility: inherit;"><text transform="translate(0,14)" style="text-anchor: middle; font-family: Roboto, sans-serif; font-size: 12px; font-weight: 200;" fill="rgb(33, 33, 33)" stroke="none" stroke-width="1px">12 AM</text></g><g transform="translate(496.7243303571429,0)" style="visibility: inherit;"><text transform="translate(0,14)" style="text-anchor: middle; font-family: Roboto, sans-serif; font-size: 12px; font-weight: 200;" fill="rgb(33, 33, 33)" stroke="none" stroke-width="1px">01 AM</text></g><g transform="translate(562.9542410714286,0)" style="visibility: inherit;"><text transform="translate(0,14)" style="text-anchor: middle; font-family: Roboto, sans-serif; font-size: 12px; font-weight: 200;" fill="rgb(33, 33, 33)" stroke="none" stroke-width="1px">02 AM</text></g><g transform="translate(629.1841517857143,0)" style="visibility: inherit;"><text transform="translate(0,14)" style="text-anchor: middle; font-family: Roboto, sans-serif; font-size: 12px; font-weight: 200;" fill="rgb(33, 33, 33)" stroke="none" stroke-width="1px">03 AM</text></g><g transform="translate(695.4140625,0)" style="visibility: inherit;"><text transform="translate(0,14)" style="text-anchor: middle; font-family: Roboto, sans-serif; font-size: 12px; font-weight: 200;" fill="rgb(33, 33, 33)" stroke="none" stroke-width="1px">04 AM</text></g><g transform="translate(761.6439732142858,0)" style="visibility: inherit;"><text transform="translate(0,14)" style="text-anchor: middle; font-family: Roboto, sans-serif; font-size: 12px; font-weight: 200;" fill="rgb(33, 33, 33)" stroke="none" stroke-width="1px">05 AM</text></g><g transform="translate(827.8738839285714,0)" style="visibility: inherit;"><text transform="translate(0,14)" style="text-anchor: middle; font-family: Roboto, sans-serif; font-size: 12px; font-weight: 200;" fill="rgb(33, 33, 33)" stroke="none" stroke-width="1px">06 AM</text></g><g transform="translate(894.1037946428572,0)" style="visibility: inherit;"><text transform="translate(0,14)" style="text-anchor: middle; font-family: Roboto, sans-serif; font-size: 12px; font-weight: 200;" fill="rgb(33, 33, 33)" stroke="none" stroke-width="1px">07 AM</text></g><g transform="translate(960.3337053571429,0)" style="visibility: inherit;"><text transform="translate(0,14)" style="text-anchor: middle; font-family: Roboto, sans-serif; font-size: 12px; font-weight: 200;" fill="rgb(33, 33, 33)" stroke="none" stroke-width="1px">08 AM</text></g><g transform="translate(1026.5636160714287,0)" style="visibility: inherit;"><text transform="translate(0,14)" style="text-anchor: middle; font-family: Roboto, sans-serif; font-size: 12px; font-weight: 200;" fill="rgb(33, 33, 33)" stroke="none" stroke-width="1px">09 AM</text></g><g transform="translate(1092.7935267857142,0)" style="visibility: inherit;"><text transform="translate(0,14)" style="text-anchor: middle; font-family: Roboto, sans-serif; font-size: 12px; font-weight: 200;" fill="rgb(33, 33, 33)" stroke="none" stroke-width="1px">10 AM</text></g><g transform="translate(1159.0234375,0)" style="visibility: inherit;"><text transform="translate(0,14)" style="text-anchor: middle; font-family: Roboto, sans-serif; font-size: 12px; font-weight: 200;" fill="rgb(33, 33, 33)" stroke="none" stroke-width="1px">11 AM</text></g><g transform="translate(1225.2533482142858,0)" style="visibility: inherit;"><text transform="translate(0,14)" style="text-anchor: middle; font-family: Roboto, sans-serif; font-size: 12px; font-weight: 200;" fill="rgb(33, 33, 33)" stroke="none" stroke-width="1px">12 PM</text></g><g transform="translate(1291.4832589285716,0)" style="visibility: inherit;"><text transform="translate(0,14)" style="text-anchor: middle; font-family: Roboto, sans-serif; font-size: 12px; font-weight: 200;" fill="rgb(33, 33, 33)" stroke="none" stroke-width="1px">01 PM</text></g><g transform="translate(1357.713169642857,0)" style="visibility: inherit;"><text transform="translate(0,14)" style="text-anchor: middle; font-family: Roboto, sans-serif; font-size: 12px; font-weight: 200;" fill="rgb(33, 33, 33)" stroke="none" stroke-width="1px">02 PM</text></g></g><g><line x1="0" y1="0" x2="0" y2="17" fill="rgb(0, 0, 0)" stroke="rgb(204, 204, 204)" stroke-width="1px"></line><line x1="66.22991071428571" y1="0" x2="66.22991071428571" y2="17" fill="rgb(0, 0, 0)" stroke="rgb(204, 204, 204)" stroke-width="1px"></line><line x1="132.45982142857142" y1="0" x2="132.45982142857142" y2="17" fill="rgb(0, 0, 0)" stroke="rgb(204, 204, 204)" stroke-width="1px"></line><line x1="198.68973214285714" y1="0" x2="198.68973214285714" y2="17" fill="rgb(0, 0, 0)" stroke="rgb(204, 204, 204)" stroke-width="1px"></line><line x1="264.91964285714283" y1="0" x2="264.91964285714283" y2="17" fill="rgb(0, 0, 0)" stroke="rgb(204, 204, 204)" stroke-width="1px"></line><line x1="331.14955357142856" y1="0" x2="331.14955357142856" y2="17" fill="rgb(0, 0, 0)" stroke="rgb(204, 204, 204)" stroke-width="1px"></line><line x1="397.3794642857143" y1="0" x2="397.3794642857143" y2="17" fill="rgb(0, 0, 0)" stroke="rgb(204, 204, 204)" stroke-width="1px"></line><line x1="463.609375" y1="0" x2="463.609375" y2="17" fill="rgb(0, 0, 0)" stroke="rgb(204, 204, 204)" stroke-width="1px"></line><line x1="529.8392857142857" y1="0" x2="529.8392857142857" y2="17" fill="rgb(0, 0, 0)" stroke="rgb(204, 204, 204)" stroke-width="1px"></line><line x1="596.0691964285714" y1="0" x2="596.0691964285714" y2="17" fill="rgb(0, 0, 0)" stroke="rgb(204, 204, 204)" stroke-width="1px"></line><line x1="662.2991071428571" y1="0" x2="662.2991071428571" y2="17" fill="rgb(0, 0, 0)" stroke="rgb(204, 204, 204)" stroke-width="1px"></line><line x1="728.5290178571429" y1="0" x2="728.5290178571429" y2="17" fill="rgb(0, 0, 0)" stroke="rgb(204, 204, 204)" stroke-width="1px"></line><line x1="794.7589285714286" y1="0" x2="794.7589285714286" y2="17" fill="rgb(0, 0, 0)" stroke="rgb(204, 204, 204)" stroke-width="1px"></line><line x1="860.9888392857143" y1="0" x2="860.9888392857143" y2="17" fill="rgb(0, 0, 0)" stroke="rgb(204, 204, 204)" stroke-width="1px"></line><line x1="927.21875" y1="0" x2="927.21875" y2="17" fill="rgb(0, 0, 0)" stroke="rgb(204, 204, 204)" stroke-width="1px"></line><line x1="993.4486607142858" y1="0" x2="993.4486607142858" y2="17" fill="rgb(0, 0, 0)" stroke="rgb(204, 204, 204)" stroke-width="1px"></line><line x1="1059.6785714285713" y1="0" x2="1059.6785714285713" y2="17" fill="rgb(0, 0, 0)" stroke="rgb(204, 204, 204)" stroke-width="1px"></line><line x1="1125.908482142857" y1="0" x2="1125.908482142857" y2="17" fill="rgb(0, 0, 0)" stroke="rgb(204, 204, 204)" stroke-width="1px"></line><line x1="1192.138392857143" y1="0" x2="1192.138392857143" y2="17" fill="rgb(0, 0, 0)" stroke="rgb(204, 204, 204)" stroke-width="1px"></line><line x1="1258.3683035714287" y1="0" x2="1258.3683035714287" y2="17" fill="rgb(0, 0, 0)" stroke="rgb(204, 204, 204)" stroke-width="1px"></line><line x1="1324.5982142857142" y1="0" x2="1324.5982142857142" y2="17" fill="rgb(0, 0, 0)" stroke="rgb(204, 204, 204)" stroke-width="1px"></line><line x1="1390.828125" y1="0" x2="1390.828125" y2="17" fill="rgb(0, 0, 0)" stroke="rgb(204, 204, 204)" stroke-width="1px"></line></g><line x1="0" y1="0" x2="1390.828125" y2="0" style="visibility: inherit;" fill="rgb(0, 0, 0)" stroke="rgb(204, 204, 204)" stroke-width="1px"></line></g><g visibility="inherit"><g><g transform="translate(198.68973214285714,0)" style="visibility: inherit;"><text transform="translate(0,31)" style="text-anchor: middle; font-family: Roboto, sans-serif; font-size: 12px; font-weight: 200;" fill="rgb(33, 33, 33)" stroke="none" stroke-width="1px">July  5, 2025</text></g><g transform="translate(894.1037946428572,0)" style="visibility: inherit;"><text transform="translate(0,31)" style="text-anchor: middle; font-family: Roboto, sans-serif; font-size: 12px; font-weight: 200;" fill="rgb(33, 33, 33)" stroke="none" stroke-width="1px">July  6, 2025</text></g></g><g><line x1="0" y1="17" x2="0" y2="34" fill="rgb(0, 0, 0)" stroke="rgb(204, 204, 204)" stroke-width="1px"></line><line x1="397.3794642857143" y1="17" x2="397.3794642857143" y2="34" fill="rgb(0, 0, 0)" stroke="rgb(204, 204, 204)" stroke-width="1px"></line><line x1="1390.828125" y1="17" x2="1390.828125" y2="34" fill="rgb(0, 0, 0)" stroke="rgb(204, 204, 204)" stroke-width="1px"></line></g><line x1="0" y1="17" x2="1390.828125" y2="17" style="visibility: inherit;" fill="rgb(0, 0, 0)" stroke="rgb(204, 204, 204)" stroke-width="1px"></line></g></g></g></g></g></svg>