<svg viewBox="0 0 1432 400" xmlns="http://www.w3.org/2000/svg"><g><g><g><g><g><line x1="51.5625" y1="365" x2="46.5625" y2="365" style="visibility: inherit;" fill="rgb(0, 0, 0)" stroke="rgb(204, 204, 204)" stroke-width="1px"></line><line x1="51.5625" y1="312.8571428571428" x2="46.5625" y2="312.8571428571428" style="visibility: inherit;" fill="rgb(0, 0, 0)" stroke="rgb(204, 204, 204)" stroke-width="1px"></line><line x1="51.5625" y1="260.7142857142858" x2="46.5625" y2="260.7142857142858" style="visibility: inherit;" fill="rgb(0, 0, 0)" stroke="rgb(204, 204, 204)" stroke-width="1px"></line><line x1="51.5625" y1="208.57142857142856" x2="46.5625" y2="208.57142857142856" style="visibility: inherit;" fill="rgb(0, 0, 0)" stroke="rgb(204, 204, 204)" stroke-width="1px"></line><line x1="51.5625" y1="156.42857142857147" x2="46.5625" y2="156.42857142857147" style="visibility: inherit;" fill="rgb(0, 0, 0)" stroke="rgb(204, 204, 204)" stroke-width="1px"></line><line x1="51.5625" y1="104.28571428571428" x2="46.5625" y2="104.28571428571428" style="visibility: inherit;" fill="rgb(0, 0, 0)" stroke="rgb(204, 204, 204)" stroke-width="1px"></line><line x1="51.5625" y1="52.14285714285708" x2="46.5625" y2="52.14285714285708" style="visibility: inherit;" fill="rgb(0, 0, 0)" stroke="rgb(204, 204, 204)" stroke-width="1px"></line><line x1="51.5625" y1="0" x2="46.5625" y2="0" style="visibility: inherit;" fill="rgb(0, 0, 0)" stroke="rgb(204, 204, 204)" stroke-width="1px"></line></g><g transform="translate(41.5625, 0)"><text x="0" y="365" dx="0em" dy="0.3em" style="text-anchor: end; visibility: hidden; font-family: Roboto, sans-serif; font-size: 12px; font-weight: 200;" fill="rgb(255, 255, 255)" stroke="none" stroke-width="1px">0.5</text><text x="0" y="312.8571428571428" dx="0em" dy="0.3em" style="text-anchor: end; visibility: inherit; font-family: Roboto, sans-serif; font-size: 12px; font-weight: 200;" fill="rgb(255, 255, 255)" stroke="none" stroke-width="1px">0.55</text><text x="0" y="260.7142857142858" dx="0em" dy="0.3em" style="text-anchor: end; visibility: inherit; font-family: Roboto, sans-serif; font-size: 12px; font-weight: 200;" fill="rgb(255, 255, 255)" stroke="none" stroke-width="1px">0.6</text><text x="0" y="208.57142857142856" dx="0em" dy="0.3em" style="text-anchor: end; visibility: inherit; font-family: Roboto, sans-serif; font-size: 12px; font-weight: 200;" fill="rgb(255, 255, 255)" stroke="none" stroke-width="1px">0.65</text><text x="0" y="156.42857142857147" dx="0em" dy="0.3em" style="text-anchor: end; visibility: inherit; font-family: Roboto, sans-serif; font-size: 12px; font-weight: 200;" fill="rgb(255, 255, 255)" stroke="none" stroke-width="1px">0.7</text><text x="0" y="104.28571428571428" dx="0em" dy="0.3em" style="text-anchor: end; visibility: inherit; font-family: Roboto, sans-serif; font-size: 12px; font-weight: 200;" fill="rgb(255, 255, 255)" stroke="none" stroke-width="1px">0.75</text><text x="0" y="52.14285714285708" dx="0em" dy="0.3em" style="text-anchor: end; visibility: inherit; font-family: Roboto, sans-serif; font-size: 12px; font-weight: 200;" fill="rgb(255, 255, 255)" stroke="none" stroke-width="1px">0.8</text><text x="0" y="0" dx="0em" dy="0.3em" style="text-anchor: end; visibility: hidden; font-family: Roboto, sans-serif; font-size: 12px; font-weight: 200;" fill="rgb(255, 255, 255)" stroke="none" stroke-width="1px">0.85</text></g><line x1="51.5625" y1="0" x2="51.5625" y2="365" fill="rgb(0, 0, 0)" stroke="rgb(204, 204, 204)" stroke-width="1px"></line></g></g><g transform="translate(51, 0)" clip-path="url(#clip_0)"><clipPath id="clip_0"><rect width="1380" height="365"></rect></clipPath><g><g><g><line x1="0" y1="0" x2="0" y2="365" fill="rgb(0, 0, 0)" stroke="rgb(189, 189, 189)" stroke-width="1px" opacity="0.25"></line><line x1="197.20535714285714" y1="0" x2="197.20535714285714" y2="365" fill="rgb(0, 0, 0)" stroke="rgb(189, 189, 189)" stroke-width="1px" opacity="0.25"></line><line x1="394.4107142857143" y1="0" x2="394.4107142857143" y2="365" fill="rgb(0, 0, 0)" stroke="rgb(189, 189, 189)" stroke-width="1px" opacity="0.25"></line><line x1="591.6160714285714" y1="0" x2="591.6160714285714" y2="365" fill="rgb(0, 0, 0)" stroke="rgb(189, 189, 189)" stroke-width="1px" opacity="0.25"></line><line x1="788.8214285714286" y1="0" x2="788.8214285714286" y2="365" fill="rgb(0, 0, 0)" stroke="rgb(189, 189, 189)" stroke-width="1px" opacity="0.25"></line><line x1="986.0267857142858" y1="0" x2="986.0267857142858" y2="365" fill="rgb(0, 0, 0)" stroke="rgb(189, 189, 189)" stroke-width="1px" opacity="0.25"></line><line x1="1183.232142857143" y1="0" x2="1183.232142857143" y2="365" fill="rgb(0, 0, 0)" stroke="rgb(189, 189, 189)" stroke-width="1px" opacity="0.25"></line><line x1="1380.4375" y1="0" x2="1380.4375" y2="365" fill="rgb(0, 0, 0)" stroke="rgb(189, 189, 189)" stroke-width="1px" opacity="0.25"></line></g><g><line x1="0" y1="365" x2="1380.4375" y2="365" fill="rgb(0, 0, 0)" stroke="rgb(189, 189, 189)" stroke-width="1px" opacity="0.25"></line><line x1="0" y1="312.8571428571428" x2="1380.4375" y2="312.8571428571428" fill="rgb(0, 0, 0)" stroke="rgb(189, 189, 189)" stroke-width="1px" opacity="0.25"></line><line x1="0" y1="260.7142857142858" x2="1380.4375" y2="260.7142857142858" fill="rgb(0, 0, 0)" stroke="rgb(189, 189, 189)" stroke-width="1px" opacity="0.25"></line><line x1="0" y1="208.57142857142856" x2="1380.4375" y2="208.57142857142856" fill="rgb(0, 0, 0)" stroke="rgb(189, 189, 189)" stroke-width="1px" opacity="0.25"></line><line x1="0" y1="156.42857142857147" x2="1380.4375" y2="156.42857142857147" fill="rgb(0, 0, 0)" stroke="rgb(189, 189, 189)" stroke-width="1px" opacity="0.25"></line><line x1="0" y1="104.28571428571428" x2="1380.4375" y2="104.28571428571428" fill="rgb(0, 0, 0)" stroke="rgb(189, 189, 189)" stroke-width="1px" opacity="0.25"></line><line x1="0" y1="52.14285714285708" x2="1380.4375" y2="52.14285714285708" fill="rgb(0, 0, 0)" stroke="rgb(189, 189, 189)" stroke-width="1px" opacity="0.25"></line><line x1="0" y1="0" x2="1380.4375" y2="0" fill="rgb(0, 0, 0)" stroke="rgb(189, 189, 189)" stroke-width="1px" opacity="0.25"></line></g></g></g><g><g><line x1="0" y1="886.4285714285716" x2="1380.4375" y2="886.4285714285716" fill="rgb(0, 0, 0)" stroke="rgb(153, 153, 153)" stroke-width="1.5px"></line></g></g><g><g><line x1="-31986511.723214284" y1="0" x2="-31986511.723214284" y2="365" fill="rgb(0, 0, 0)" stroke="rgb(153, 153, 153)" stroke-width="1.5px"></line></g></g><g><g><g><g><g><path stroke="rgb(0, 119, 187)" stroke-width="2px" d="M45.94797174603175,348.61653174672807L48.70486611937831,229.3635556191084L51.35013860863095,195.98143104544644L54.004303598710315,176.42688624944677L56.655400949900795,154.7887828554646L59.306060066964285,149.31594672283632L61.9595129265873,150.57723996017288L64.59043324818121,150.14352281605585L67.23862729828043,146.22857881482335L69.90015096974206,146.2763836470757L72.5476876686508,145.78698191342636L75.32139927662037,143.21999723757492L77.95973305886244,138.8706209127866L80.61442758184523,139.638399769809L83.2663466220238,139.28876936854937L85.9013753885582,137.04090334563702L88.53423124421296,132.13757784324642L91.17152422040344,131.0373141116562L93.79428243138229,127.79127281501509L96.41565290095899,132.1859400239024L99.04710275545634,129.38383213453233L101.80843424933862,129.96438391977634L104.4453255109127,133.70615796455348L107.07524154596561,125.75548847875197L109.71888891699736,123.91136677132837L112.33912728174603,128.82892427949443L114.96531832671958,129.80967076050945L117.60157049685847,129.0093631722379L120.22326964203043,125.33620266124255L122.87683206018518,117.59681505529849L125.50638290013228,119.50594489138807L128.27196891699737,121.4566379432138L130.90685160548944,122.47788368368L133.5303219469246,124.01454312387892L136.1642916476521,125.13803149393688L138.78907669146827,122.29876930258148L141.42273597635582,125.69730967080021L144.06134365492724,123.87926033723173L146.69368823743386,124.6711707377236L149.3289909002976,125.1296853090261L151.97041058118387,123.86105439562247L154.776661073082,126.61316287081515L157.41576176504628,122.89062191208572L160.04964016699736,122.36069253344637L162.68103524222883,121.43241783319105L165.31111561507936,125.73209531279845L167.95872535300927,127.43176897648209L170.59446624999998,124.82914138958519L173.23020714699072,121.50999229355965L175.86903394262563,117.49578593894617L178.50913892113095,115.89141986970776L181.3117922412368,118.91052927981622L183.9511850892857,119.80997085436945L186.59298822503308,123.19919702020863L189.2100859118717,125.01739041836916L191.84595462714947,120.17671679258586L194.48443448743387,120.27164988600977L197.12399167328044,124.75866294362898L199.7626541311177,121.74388708985487L202.39572910383598,122.76940524355908L205.01784822337962,119.97114750840694L207.81275940724208,114.82672339743539L210.4507279943783,120.76404523445221L213.0675335251323,120.98927847452448L215.69200815310847,121.66138758950052L218.3113517898479,120.30461223408062L220.9374150165344,118.56044227222931L223.58248664847886,116.23075816860953L226.2143382175926,118.99501913739539L228.8442725124008,118.28295511223841L231.4640361235119,119.35486968115107L234.2722038897156,119.74692441142568L236.91358705109124,115.27886050739329L239.53996069361773,118.24343910456517L242.18057694527118,119.21409172866097L244.79451569444444,114.61334730050248L247.44123070436507,112.2314617645259L250.08316165839946,114.67400394872108L252.71676616402115,117.50127001080067L255.35928143022485,109.58687235375152L257.9806884193122,115.87145726697293L260.77335365327383,115.14407395867147L263.40361662367724,112.53632095097092L266.02686784804894,110.29673107920031L268.6599063012566,111.74193208265231L271.285713891369,113.86229836176638L273.9017525124008,111.16292634552994L276.52593498429235,111.39551337374337L279.15829782655425,110.10194542133893L281.78799474454365,113.27946270053603L284.40774009589944,111.24905694322501L287.2308443419312,107.26160659134175L289.86578180968917,107.5095187998592L292.49798031415344,111.07921879748321L295.13236998925265,111.97223147796751L297.764824130291,115.47860587216995L300.3887509656085,117.57553436056563L303.01390120453044,113.11525160034417L305.65040901124337,114.16185030166318L308.2712864674273,116.03540977816871L310.89537764054234,114.42629342502835L313.71935835482805,115.36633173922918L316.3601206845238,114.00308653440102L319.00157688492067,114.54507265632002L321.62155961309526,111.46690992075325L324.26511568535057,111.80965529882184L326.9010209201389,110.61104000686063L329.540486807209,109.37793972557732L332.17416435185186,111.26598174475598L334.7915724545304,110.41561236406766L337.4251769601521,110.07951121233238L340.2588718642526,109.1473711636286L342.87905544973546,109.68850997522215L345.5116374090608,109.80696099750082L348.1474148255622,108.98419782309124L350.7717981547619,110.60523322272019L353.40107509837964,112.29553340609064L356.02282902281746,109.96530444209913L358.6604871941138,110.05048568626769L361.295570739914,107.9464814214181L363.92888308945106,112.83994165992027L366.7496866063161,113.79497086478179L369.38566488012566,114.6461676311954L372.02534988425924,111.74858280675399L374.6466838343254,110.06778929301572L377.2833194593254,104.31173311312332L379.9299431704696,104.24614492401874L382.55465517526454,104.60836838457689L385.1758065277778,99.90672953473754L387.82604567046957,97.59565229849537L390.462772594246,99.41393398784436L393.2953901727844,100.83057019968619L395.9192439690807,104.57948770963222L398.53690770833333,107.81809743361482L401.1575295279431,101.14105619874032L403.78514483382935,102.59006829509718L406.42683841104497,101.84321102885868L409.05613361441794,102.78355756117647L411.69149105654765,106.13199689962968L414.3083331068122,105.74658933439959L416.9238604546958,107.89345366880545L419.74948454695766,108.02463534707667L422.3819752075066,112.39671300023406L425.00694284887567,107.40909787922216L427.625903030754,103.61596409879294L430.251874958664,102.58695802050237L432.87549137814153,102.19918602784739L435.508328974041,101.00291661460096L438.12655876570767,101.94070906382116L440.74272520502643,104.30215039859283L443.35764998098546,99.77364255696989L446.1823610854828,99.8126740202595L448.8066713756614,99.628224859536L451.41955105902775,95.91532275685157L454.0481523916997,98.68616680900061L456.66364322007274,96.91368291055757L459.27405783647487,100.74036867096663L461.9081370957341,104.33809541786675L464.5315161383929,102.69622774453711L467.15856539186507,101.39947956690686L469.7739284019511,96.08611540538345L472.61578541666665,97.95603761631295L475.2458110102514,100.28325515214588L477.8901339922288,95.80229668852992L480.53690378141533,87.98963089524L483.17750177331345,89.94081870742126L485.81844670056216,90.9671456471799L488.4476140856482,90.27448267720847L491.0736590525794,97.93920592198171L493.6961251074735,98.24396276117209L496.31829900628304,98.09208249497216L499.1783062177579,98.87710199714449L501.8049354968585,99.01934712733652L504.4195863764881,98.160607012396L507.04152289847883,101.09246485065113L509.6762047296627,95.76837504368865L512.3128951339286,94.94027304184019L514.9388122825727,94.92012700956415L517.5493181977513,97.2106734932141L520.1779377901786,94.99833584997675L522.7962588806216,95.50516505370652L525.6734667815807,93.735043270861L528.2876429075728,97.65209777003119L530.919841412037,101.00785947994724L533.5348392270172,100.83634856189522L536.1529777199074,99.25238691513356L538.7715361871693,102.99235774028934L541.4004114161706,106.61958654460462L544.0204124041005,106.33279390213882L546.6420385102514,104.54040936695868L549.267864360119,101.08288013292322L552.1242196205358,104.2994212184893L554.7470143510251,106.75896171802181L557.3792311152447,102.79752996938008L559.9989764666005,95.76002017783044L562.6390997048611,97.28869184491954L565.2615475,96.0210537406971L567.8812015525793,98.88151740413585L570.5194075165344,98.80593665700509L573.1321959011243,97.98080865507677L575.7606694155093,95.57740937264059L578.6254972023809,98.50067590673893L581.2475067633928,99.32800607882896L583.8640201380622,95.92337660438226L586.5002905679563,95.88483792308602L589.117826488922,100.4263721289301L591.749258083664,93.7271763245783L594.3858206696428,92.34898642002403L597.0193703959987,91.28285679045001L599.6476247933201,96.79359147662797L602.2742540724206,96.7716726013868L605.1695391311177,98.38117338496811L607.7902705092592,100.20610132145057L610.4135765128968,99.83464995919476L613.0371929323743,99.57683026754403L615.6647899785053,92.58446064476855L618.3087295056217,98.31502066738908L620.9553166972553,102.18834072001185L623.5800652215609,101.05425763612116L626.2012165740741,98.36364362726528L628.8251799289021,97.50282094559087L631.7002331787368,97.19673680778186L634.3384208829365,96.73061641125453L636.9834925148809,98.63812560677208L639.6078575843254,97.49497358042399L642.2408777777778,99.20174467040562L644.8746101016866,96.69525103205615L647.5048182928241,97.57034398018159L650.1299320122355,98.45237521883L652.762897426422,98.96870867126492L655.4003730001654,97.62391224525429L658.2992552306548,92.13056569704749L660.9291712657076,94.55910813948466L663.5557640252977,94.28304150156924L666.1910119088955,91.75067319300828L668.8249450901125,84.43238559432392L671.4638814442791,85.12237137918807L674.09178890625,88.69639092096185L676.7319669237764,89.65069793663406L679.3690042633929,91.98420432729856L682.0019696775794,94.0094964585455L684.8836146990741,94.06426992217519L687.5152654108796,91.83300725170507L690.127451223545,88.8114608443946L692.7646894204696,92.20814523580522L695.3905883093585,95.0788935093831L698.0339983035715,91.56946034395665L700.6623074801587,95.91474919832328L703.3018829257605,92.05718054645894L705.9209344064153,90.68919782435799L708.5444777868717,91.64379976846361L711.41474698082,92.16100500127484L714.0450647304895,89.62310661786643L716.657323582176,86.62396573309434L719.3001675239749,88.80188916255769L721.9244412946427,86.77376068023483L724.5518922627314,85.62087235102686L727.1748695907738,88.4415855332313L729.8146458936839,87.05506611361642L732.4451645006615,85.88104299767095L735.058372859623,84.80371359724045L737.9067486069775,85.9959036372505L740.5328848726851,82.24029252636281L743.1597880481152,84.06133275403779L745.782363661541,86.12369388312688L748.3945677339617,85.71431154074098L751.008506483135,88.50886900675782L753.627265807705,92.53818239065582L756.2441443774801,93.2376225205872L758.8613516228505,90.25584226797437L761.4776458804563,87.16420399561132L764.3451578513558,87.79475768836427L766.9816291385582,90.3898519927774L769.6237061706349,89.09161725317098L772.2416620659723,85.72987948552029L774.870884230324,86.03266708431902L777.495030182705,86.32848790696403L780.1472961582341,87.34626360334232L782.7855386416996,89.70988627806005L785.4154364169974,89.01059112478323L788.0354556646826,89.33695809394258L790.888725026455,91.55614543547821L793.5242833258928,91.61392073930574L796.1560435962301,90.63065064376251L798.774912479332,91.24768025884661L801.4135749371693,90.85839339690492L804.037209616402,92.410963977612L806.674849527943,89.30717187679468L809.3005110400131,88.34364372416908L811.9391004588293,87.39968938470354L814.5779820337302,87.96583699042627L817.4537474140211,88.06367107448688L820.0719772056877,84.44400564385232L822.6918321155754,88.04230118695048L825.3332700562169,85.94770385394426L827.9757122833995,87.76685242870231L830.596699298115,85.59180163276591L833.2204070163691,82.39775826696513L835.8413392518188,80.88871820724007L838.4804034242725,81.8311034768052L841.1138801116072,84.93252196985385L843.9726639194776,84.88498544607667L846.6199267220569,84.28341676833489L849.2477428852513,84.38937050927281L851.8616451149139,84.3059357879243L854.5071184614748,82.8164665244413L857.142384604828,82.36521142156575L859.789117874504,78.48190406487316L862.423562328869,76.84750041181904L865.0458457862104,74.44630038737222L867.6717446750991,79.52978821351718L870.5583928695436,78.4174284597991L873.2009081357473,77.8891583378847L875.839661892361,76.85396103019025L878.4706552529763,75.47536122732697L881.1050449280754,75.82878434120617L883.7350522619048,75.98275480971581L886.3743903306878,76.56088855092075L889.0226209002977,78.97543055434896L891.665738738426,82.55583521310962L894.282489489914,81.65426296271897L897.1666543576389,80.75175889127058L899.8078914409722,81.98329306689489L902.4356528249008,83.63354994719725L905.0720145535714,82.3548381660261L907.7060755530754,83.05862555227058L910.3383836160715,80.85684598403707L912.9670032084987,79.65092455139516L915.6042414054233,80.13732891967L918.2341939599868,79.4014898846355L920.8536471552579,78.37574649741747L923.7546840368717,75.57935182908263L926.3873572949735,71.40006538368728L929.014242210648,72.91661469477322L931.6431722189154,72.16563051296508L934.2891203191137,71.64287974827039L936.9341189120371,72.36062264969131L939.5731465649802,69.7965060983919L942.1953752430555,70.25784809580092L944.8246521866733,75.57452531184411L947.4609956555886,77.64766743715579L950.3533043741733,78.50890788362145L952.9786006911377,76.50772502960164L955.5933246097884,74.66400419795926L958.216703652447,70.21276165753196L960.8448484912368,74.83611741722956L963.462110515873,74.75586436172988L966.0832253488757,76.02071976476924L968.7089416402116,73.67679280458009L971.3356622180887,74.95244393914176L973.9572152852184,76.57753499264078L976.8412340749007,76.0914829342172L979.4831285094247,77.37743040938541L982.1241099561839,77.58065447460197L984.7571484093916,78.76136552152788L987.3860601579034,77.42762993647291L990.0125798784723,78.1548435144847L992.6490876851851,77.31927350919771L995.2828200090938,74.26750959814646L997.9174470610119,72.92248532263758L1000.5645455257936,73.58370387276297L1003.4552473859127,73.07882557827251L1006.091024802414,70.4442749360976L1008.7165219766865,70.91953325274022L1011.3352082622354,73.26836143386619L1013.9713326140874,69.99901774745139L1016.6048275611772,67.56754673422512L1019.2291743708663,71.48998746597498L1021.8587069510583,72.58622190707652L1024.4829624619708,74.05238646225493L1027.1065971412036,72.12662876649127L1030.0051324363426,72.97240923907576L1032.634007665344,72.82109243361771L1035.2696207440476,73.12082098075633L1037.9087396957673,73.92188754727476L1040.537213210152,75.19253686620003L1043.1645911392195,75.94835288434429L1045.8017380373676,76.72400723401816L1048.432001007771,73.7931632242109L1051.0555261284724,74.70436408191514L1053.6787773528438,75.0131540380938L1056.5822062624009,73.06184414811221L1059.2243015542329,71.32873566140303L1061.8538158746692,71.14910382702449L1064.4692701835318,73.93340450228092L1067.1062527438824,69.13644229433021L1069.7331376595569,68.84745422375663L1072.359420003307,72.52630412472018L1074.9924219370039,76.33648753181849L1077.6227944659393,73.77585705361135L1080.2374636053241,71.75180600233868L1083.1456948305226,70.79677568263264L1085.7809609738756,70.01873184734949L1088.3989351289683,70.82612759596667L1091.026386097057,69.26610657463993L1093.6614879026124,71.5449933867991L1096.2953845643187,72.7050572258951L1098.9180149570104,68.66968176761624L1101.5548331795635,68.24354921579983L1104.1835623305224,63.33322100169134L1106.8163086276454,66.4161774898495L1109.7161951446758,59.40765799544999L1112.3359770155423,56.30266985268L1114.9673538310185,57.828310744303955L1117.6072944717262,57.567126924887724L1120.2445691881614,58.362324909715745L1122.8937127455356,61.65835644511493L1125.5413955224867,59.85910988904885L1128.1835455935845,62.08294820262826L1130.824034026951,62.895986318839846L1133.450060734127,62.68483628797532L1136.3562103472223,63.85136145605669L1139.0085493617726,67.5988760288498L1141.638629734623,68.06413168855688L1144.259452411541,66.0003690941309L1146.8825758176256,64.7192155768718L1149.5195035987103,64.8753464091846L1152.1523959738756,65.43839496032896L1154.7882099098877,64.74125556624445L1157.42123010334,65.22493593039476L1160.055418921131,67.00489614483455L1162.9736564922289,67.517734457442L1165.6057089186506,70.222495308048L1168.2495936665014,70.48191397011736L1170.8796557795965,69.14630484336712L1173.511854284061,68.21043508849026L1176.148562948082,69.08575418092924L1178.779355451389,65.31506953483432L1181.416757986111,66.12568244865179L1184.0465279431216,66.19343415305183L1186.6779047585978,66.11415398626507L1189.5241988938492,66.36800936503215L1192.1585337896825,67.25445892506956L1194.8291690790345,67.61810429504797L1197.600123463955,70.37302432409706L1200.2899862756283,69.65038578186422L1202.958996446759,65.34328664049391L1205.647508036541,64.9990044028738L1208.3432687491731,65.66708155504097L1211.0380982142858,66.64376211071226" style="fill: none;" fill="none"></path></g></g></g></g><g opacity="0.2"><g><g><g><path stroke="rgb(0, 119, 187)" stroke-width="2px" d="M45.94797174603175,348.61653174672807L48.70486611937831,132.53013900348117L51.35013860863095,146.86484234673634L54.004303598710315,137.18616860253468L56.655400949900795,101.96009261267524L59.306060066964285,134.02226890836442L61.9595129265873,154.4634229796273L64.59043324818121,148.70624440056935L67.23862729828043,132.5150964941297L69.90015096974206,146.45117333957126L72.5476876686508,143.93658791269576L75.32139927662037,133.25466581753318L77.95973305886244,121.62848438535417L80.61442758184523,142.7333114828382L83.2663466220238,137.8604708399091L85.9013753885582,127.75911501475741L88.53423124421296,111.71584367752075L91.17152422040344,126.42294236591881L93.79428243138229,114.10132459231784L96.41565290095899,150.80417718206132L99.04710275545634,117.46904407228739L101.80843424933862,132.4402569021497L104.4453255109127,149.70197149685447L107.07524154596561,91.70085259846276L109.71888891699736,116.00009952272684L112.33912728174603,149.95216199329917L114.96531832671958,134.02680652482167L117.60157049685847,125.56520853723795L120.22326964203043,109.5178346974509L122.87683206018518,84.24890535218373L125.50638290013228,127.7358053411756L128.27196891699737,129.86873371260504L130.90685160548944,126.88316856111796L133.5303219469246,130.64472828592568L136.1642916476521,129.98646310397555L138.78907669146827,110.0439495699746L141.42273597635582,140.3679701260158L144.06134365492724,116.03037101881843L146.69368823743386,128.09029885700767L149.3289909002976,127.10948995181491L151.97041058118387,118.38296975408281L154.776661073082,138.49760191781178L157.41576176504628,106.81496926716393L160.04964016699736,120.07214409964423L162.68103524222883,117.42348143032616L165.31111561507936,144.3014620031629L167.95872535300927,134.77240528379167L170.59446624999998,113.58863609177723L173.23020714699072,107.1747463090079L175.86903394262563,100.15847240175516L178.50913892113095,108.96213207926066L181.3117922412368,131.95019432476585L183.9511850892857,123.69471601077487L186.59298822503308,137.83753412110462L189.2100859118717,132.87033591951638L191.84595462714947,99.26934821265083L194.48443448743387,120.68167652402605L197.12399167328044,144.138605083738L199.7626541311177,108.7226951122284L202.39572910383598,127.19875046185082L205.01784822337962,107.88510084152222L207.81275940724208,92.60725702558244L210.4507279943783,146.4081592219216L213.0675335251323,121.96209243365695L215.69200815310847,124.56432223320007L218.3113517898479,114.44450514657154L220.9374150165344,111.02712052209034L223.58248664847886,106.16851431982856L226.2143382175926,130.9342655113765L228.8442725124008,115.20744630268639L231.4640361235119,123.98462619100297L234.2722038897156,121.44026654107228L236.91358705109124,95.98063298634118L239.53996069361773,131.0478924001966L242.18057694527118,123.40648412704468L244.79451569444444,94.74205017089844L247.44123070436507,101.94374476160318L250.08316165839946,125.22370627948214L252.71676616402115,129.71265213830128L255.35928143022485,75.40341258049011L257.9806884193122,143.01551393100192L260.77335365327383,112.00239726475304L263.40361662367724,101.27304775374274L266.02686784804894,100.62360916818888L268.6599063012566,117.98397030149187L271.285713891369,123.02047593252998L273.9017525124008,99.50393676757812L276.52593498429235,112.4000913756234L279.15829782655425,104.514832837241L281.78799474454365,127.00363295418873L284.40774009589944,102.47943214007785L287.2308443419312,90.03921474729265L289.86578180968917,108.58028854642595L292.49798031415344,126.4972846848624L295.13236998925265,115.8292862347194L297.764824130291,130.62315906797136L300.3887509656085,126.63248079163685L303.01390120453044,93.85062609400065L305.65040901124337,118.68226596287316L308.2712864674273,124.12759218897135L310.89537764054234,107.47628024646212L313.71935835482805,119.42649722099304L316.3601206845238,108.11502746173312L319.00157688492067,116.88599143709452L321.62155961309526,98.17186662128991L324.26511568535057,113.29002363341193L326.9010209201389,105.43404204504829L329.540486807209,104.0519959586007L332.17416435185186,119.42071642194475L334.7915724545304,106.74274035862511L337.4251769601521,108.62784028053284L340.2588718642526,105.12131946427479L342.87905544973546,112.02576909746439L345.5116374090608,110.31856860433305L348.1474148255622,105.4305611337934L350.7717981547619,117.60672654424394L353.40107509837964,119.59619164466858L356.02282902281746,99.9006984915052L358.6604871941138,110.41839616639271L361.295570739914,98.85897363935197L363.92888308945106,133.97552524294167L366.7496866063161,117.91988423892428L369.38566488012566,118.32261323928833L372.02534988425924,99.23348239489962L374.6466838343254,102.80819177627563L377.2833194593254,79.45046918732777L379.9299431704696,103.9628597668239L382.55465517526454,106.17286545889716L385.1758065277778,79.59965109825134L387.82604567046957,87.61376551219394L390.462772594246,107.26736341203959L393.2953901727844,106.94923298699513L395.9192439690807,120.77162078448703L398.53690770833333,121.8061351776123L401.1575295279431,72.30192065238953L403.78514483382935,108.8485673495701L406.42683841104497,98.61742326191491L409.05613361441794,106.84505428586687L411.69149105654765,120.59440510613575L414.3083331068122,104.08195665904452L416.9238604546958,117.16608047485352L419.74948454695766,108.591228553227L422.3819752075066,131.28036754471913L425.00694284887567,85.86684533527917L427.625903030754,87.23285436630249L430.251874958664,98.14252751214161L432.87549137814153,100.52434103829518L435.508328974041,95.83605085100443L438.12655876570767,105.99117432321817L440.74272520502643,114.50156722749979L443.35764998098546,80.21434273038591L446.1823610854828,99.98125672340393L448.8066713756614,98.83156146321977L451.41955105902775,79.87874558993747L454.0481523916997,110.6538549491337L456.66364322007274,89.2580609662192L459.27405783647487,117.26839440209523L461.9081370957341,119.8772130693708L464.5315161383929,95.6047567299434L467.15856539186507,95.79863105501444L469.7739284019511,73.13690423965454L472.61578541666665,106.03251014436991L475.2458110102514,110.33485429627552L477.8901339922288,76.44836970738L480.53690378141533,54.24556374549866L483.17750177331345,98.36828947067261L485.81844670056216,95.40000455720082L488.4476140856482,87.28276814733232L491.0736590525794,131.0442871706826L493.6961251074735,99.56025293895175L496.31829900628304,97.43608900478905L499.1783062177579,102.26771814482551L501.8049354968585,99.63372503008158L504.4195863764881,94.45158055850436L507.04152289847883,113.75559551375251L509.6762047296627,72.7728382178715L512.3128951339286,91.36357716151645L514.9388122825727,94.83311329569132L517.5493181977513,107.1038849013192L520.1779377901786,85.44292007173807L522.7962588806216,97.69423586981635L525.6734667815807,86.08962365559167L528.2876429075728,114.57043954304284L530.919841412037,115.50189409937174L533.5348392270172,100.09556736264909L536.1529777199074,92.41102065358842L538.7715361871693,119.14584875106812L541.4004114161706,122.2861279760088L544.0204124041005,105.09409376553124L546.6420385102514,96.79883360862732L549.267864360119,86.1492964199611L552.1242196205358,118.19214122635975L554.7470143510251,117.38208345004489L557.3792311152447,85.68751624652316L559.9989764666005,65.36396724837165L562.6390997048611,103.89125244958058L565.2615475,90.54593597139628L567.8812015525793,111.23628599303107L570.5194075165344,98.47949215344018L573.1321959011243,94.41695792334419L575.7606694155093,85.19676991871422L578.6254972023809,111.12669944763184L581.2475067633928,102.90136831147328L583.8640201380622,81.21827483177185L586.5002905679563,95.7183836187635L589.117826488922,120.04193476268222L591.749258083664,64.79235189301625L594.3858206696428,86.39637895992821L597.0193703959987,86.67808413505554L599.6476247933201,120.59527533394947L602.2742540724206,96.67700171470642L605.1695391311177,105.33284698213846L607.7902705092592,108.08823687689643L610.4135765128968,98.2302962030683L613.0371929323743,98.46326862062723L615.6647899785053,62.3833748272487L618.3087295056217,123.06616289275031L620.9553166972553,118.91778690474372L623.5800652215609,96.1559838908059L626.2012165740741,86.74248099327087L628.8251799289021,93.78479957580566L631.7002331787368,95.87471382958546L634.3384208829365,94.71737299646647L636.9834925148809,106.87694191932678L639.6078575843254,92.55752972194125L642.2408777777778,106.573543207986L644.8746101016866,85.86933170046122L647.5048182928241,101.35000075612749L650.1299320122355,102.26199950490678L652.762897426422,101.19882975305826L655.4003730001654,91.81553619248524L658.2992552306548,68.40398379734582L660.9291712657076,105.04834464618136L663.5557640252977,93.09066857610429L666.1910119088955,80.81299730709618L668.8249450901125,52.82361149787903L671.4638814442791,88.10252274785722L674.09178890625,104.1331136226654L676.7319669237764,93.77249206815446L679.3690042633929,102.06296597208292L682.0019696775794,102.75703481265475L684.8836146990741,94.30084466934204L687.5152654108796,82.19585146222795L690.127451223545,75.76095189367021L692.7646894204696,106.8789310114724L695.3905883093585,107.47808286121911L698.0339983035715,76.41169582094462L700.6623074801587,114.68269893101281L703.3018829257605,75.39576700755526L705.9209344064153,84.78067670549662L708.5444777868717,95.76686773981363L711.41474698082,94.3948914323534L714.0450647304895,78.66154551506042L716.657323582176,73.67022957120622L719.3001675239749,98.20866482598439L721.9244412946427,78.01397170339311L724.5518922627314,80.64137595040455L727.1748695907738,100.62466587339128L729.8146458936839,81.06648223740712L732.4451645006615,80.81026230539591L735.058372859623,80.15056746346607L737.9067486069775,91.14514998027255L740.5328848726851,66.01924879210334L743.1597880481152,91.92667671612328L745.782363661541,95.031338759831L748.3945677339617,83.94612823213846L751.008506483135,100.57897891317094L753.627265807705,109.94138700621467L756.2441443774801,96.2586086136954L758.8613516228505,77.37708926200867L761.4776458804563,73.81095784051075L764.3451578513558,90.51821299961632L766.9816291385582,101.59845079694475L769.6237061706349,83.48434805870056L772.2416620659723,71.21003338268822L774.870884230324,87.34045181955607L777.495030182705,87.60618209838867L780.1472961582341,91.7421884196145L782.7855386416996,99.91872463907511L785.4154364169974,85.99023120743885L788.0354556646826,90.74658564158847L790.888725026455,101.14114608083452L793.5242833258928,91.86346088136942L796.1560435962301,86.38376065662926L798.774912479332,93.91272306442261L801.4135749371693,89.17700546128407L804.037209616402,99.11674754960194L806.674849527943,75.90143152645653L809.3005110400131,84.18202212878634L811.9391004588293,83.32261000360758L814.5779820337302,90.41111281939914L817.4537474140211,88.48623105457848L820.0719772056877,68.8101315498352L822.6918321155754,103.58387555394853L825.3332700562169,76.90082601138522L827.9757122833995,95.62402606010437L830.596699298115,76.19743330138068L833.2204070163691,68.60220926148548L835.8413392518188,74.37094943864003L838.4804034242725,85.90140581130981L841.1138801116072,98.32801035472323L843.9726639194776,84.67966811997547L846.6199267220569,81.68515205383301L849.2477428852513,84.84700049672807L851.8616451149139,83.94556879997253L854.5071184614748,76.38322693961005L857.142384604828,80.41617342403954L859.789117874504,61.70932122639245L862.423562328869,69.78826761245728L865.0458457862104,64.07515985625129L867.6717446750991,101.4861292498452L870.5583928695436,73.61298101288929L873.2009081357473,75.60748100280762L875.839661892361,72.38278967993598L878.4706552529763,69.52098335538591L881.1050449280754,77.35527140753608L883.7350522619048,76.64777619498115L886.3743903306878,79.0579342842102L889.0226209002977,89.40419707979471L891.665738738426,98.02013618605476L894.282489489914,77.76023813656396L897.1666543576389,76.85370939118519L899.8078914409722,87.30247259140015L902.4356528249008,90.76125519616261L905.0720145535714,76.83189153671265L907.7060755530754,86.09838809285844L910.3383836160715,71.34703210421969L912.9670032084987,74.44237027849466L915.6042414054233,82.23818182945251L918.2341939599868,76.22329149927408L920.8536471552579,73.9454080377306L923.7546840368717,63.501306772232056L926.3873572949735,53.34910477910722L929.014242210648,79.46681703839982L931.6431722189154,68.92201798302784L934.2891203191137,69.3850413390568L936.9341189120371,75.460661138807L939.5731465649802,58.72170482363016L942.1953752430555,72.2504528931209L944.8246521866733,98.53804605347767L947.4609956555886,86.60187704222541L950.3533043741733,82.22873364176066L952.9786006911377,67.86431823457987L955.5933246097884,66.70069932937622L958.216703652447,50.98718217441013L960.8448484912368,94.80507952826362L963.462110515873,74.40923946244374L966.0832253488757,81.48381863321573L968.7089416402116,63.55302316801886L971.3356622180887,80.46217117990763L973.9572152852184,83.59654528754096L976.8412340749007,73.99215170315331L979.4831285094247,82.9316290787288L982.1241099561839,78.45840947968617L984.7571484093916,83.86103238378251L987.3860601579034,71.6670273031507L990.0125798784723,81.29578726632252L992.6490876851851,73.71032220976691L995.2828200090938,61.08648674828664L997.9174470610119,67.11312515395026L1000.5645455257936,76.43960527011325L1003.4552473859127,70.89818102972846L1006.091024802414,59.065258332661195L1008.7165219766865,72.97224470547265L1011.3352082622354,83.41330017362321L1013.9713326140874,55.878235442297765L1016.6048275611772,57.065661294119664L1019.2291743708663,88.43159317970276L1021.8587069510583,77.32102172715321L1024.4829624619708,80.38496954100471L1027.1065971412036,63.80899446351186L1030.0051324363426,76.62546106747216L1032.634007665344,72.1675326142992L1035.2696207440476,74.41539321626932L1037.9087396957673,77.38181335585456L1040.537213210152,80.6806605202811L1043.1645911392195,79.21283483505249L1045.8017380373676,80.0741738932473L1048.432001007771,61.13441143717081L1051.0555261284724,78.63997629710605L1053.6787773528438,76.34686384882242L1056.5822062624009,64.63384611265998L1059.2243015542329,63.84318198476518L1061.8538158746692,70.37324718066623L1064.4692701835318,85.95921380179267L1067.1062527438824,48.41764807701111L1069.7331376595569,67.59927170617237L1072.359420003307,88.41580476079668L1074.9924219370039,92.79323714120045L1077.6227944659393,62.716112647737766L1080.2374636053241,63.00962805747986L1083.1456948305226,66.67185749326433L1085.7809609738756,66.65824464389254L1088.3989351289683,74.31339008467536L1091.026386097057,62.528143439974095L1093.6614879026124,81.38784493718828L1096.2953845643187,77.71554572241645L1098.9180149570104,51.24029414994374L1101.5548331795635,66.40301925795417L1104.1835623305224,42.12478211947849L1106.8163086276454,79.73192572593689L1109.7161951446758,29.136818477085637L1112.3359770155423,42.89176361901418L1114.9673538310185,64.41778097833902L1117.6072944717262,56.439035109111224L1120.2445691881614,61.79690343993048L1122.8937127455356,75.89440754481723L1125.5413955224867,52.08789604050771L1128.1835455935845,71.6880370889391L1130.824034026951,66.40761903354098L1133.450060734127,61.77284785679406L1136.3562103472223,68.88975739479065L1139.0085493617726,83.7849496092115L1141.638629734623,70.0736401762281L1144.259452411541,57.08667107990807L1146.8825758176256,59.18572272573198L1149.5195035987103,65.54969872747148L1152.1523959738756,67.87028551101685L1154.7882099098877,61.730206693921744L1157.42123010334,67.31402346066064L1160.055418921131,74.69280941145759L1162.9736564922289,69.73275950976779L1165.6057089186506,81.90476025853837L1168.2495936665014,71.60238180841715L1170.8796557795965,63.377610104424605L1173.511854284061,64.1682742323194L1176.148562948082,72.86638770784647L1178.779355451389,49.028920957020325L1181.416757986111,69.62684035301208L1184.0465279431216,66.48606385503496L1186.6779047585978,65.77173113822937L1189.5241988938492,67.4644485541752L1192.1585337896825,71.08316659927368L1194.8291690790345,69.18874280793324L1197.600123463955,82.27193423679894L1200.2899862756283,66.52920229094367L1202.958996446759,46.74028396606445L1205.647508036541,63.511998142514884L1208.3432687491731,68.5526062761034L1211.0380982142858,70.86219089371815" style="fill: none;" fill="none"></path></g></g></g></g></g></g><g transform="translate(51, 365)" clip-path="url(#clip_1)"><clipPath id="clip_1"><rect width="1380" height="35"></rect></clipPath><g><g visibility="inherit"><g><g transform="translate(32.867559523809526,0)" style="visibility: inherit;"><text transform="translate(0,14)" style="text-anchor: middle; font-family: Roboto, sans-serif; font-size: 12px; font-weight: 200;" fill="rgb(255, 255, 255)" stroke="none" stroke-width="1px">06 PM</text></g><g transform="translate(98.60267857142857,0)" style="visibility: inherit;"><text transform="translate(0,14)" style="text-anchor: middle; font-family: Roboto, sans-serif; font-size: 12px; font-weight: 200;" fill="rgb(255, 255, 255)" stroke="none" stroke-width="1px">07 PM</text></g><g transform="translate(164.33779761904762,0)" style="visibility: inherit;"><text transform="translate(0,14)" style="text-anchor: middle; font-family: Roboto, sans-serif; font-size: 12px; font-weight: 200;" fill="rgb(255, 255, 255)" stroke="none" stroke-width="1px">08 PM</text></g><g transform="translate(230.07291666666666,0)" style="visibility: inherit;"><text transform="translate(0,14)" style="text-anchor: middle; font-family: Roboto, sans-serif; font-size: 12px; font-weight: 200;" fill="rgb(255, 255, 255)" stroke="none" stroke-width="1px">09 PM</text></g><g transform="translate(295.8080357142857,0)" style="visibility: inherit;"><text transform="translate(0,14)" style="text-anchor: middle; font-family: Roboto, sans-serif; font-size: 12px; font-weight: 200;" fill="rgb(255, 255, 255)" stroke="none" stroke-width="1px">10 PM</text></g><g transform="translate(361.54315476190476,0)" style="visibility: inherit;"><text transform="translate(0,14)" style="text-anchor: middle; font-family: Roboto, sans-serif; font-size: 12px; font-weight: 200;" fill="rgb(255, 255, 255)" stroke="none" stroke-width="1px">11 PM</text></g><g transform="translate(427.2782738095238,0)" style="visibility: inherit;"><text transform="translate(0,14)" style="text-anchor: middle; font-family: Roboto, sans-serif; font-size: 12px; font-weight: 200;" fill="rgb(255, 255, 255)" stroke="none" stroke-width="1px">12 AM</text></g><g transform="translate(493.0133928571429,0)" style="visibility: inherit;"><text transform="translate(0,14)" style="text-anchor: middle; font-family: Roboto, sans-serif; font-size: 12px; font-weight: 200;" fill="rgb(255, 255, 255)" stroke="none" stroke-width="1px">01 AM</text></g><g transform="translate(558.7485119047619,0)" style="visibility: inherit;"><text transform="translate(0,14)" style="text-anchor: middle; font-family: Roboto, sans-serif; font-size: 12px; font-weight: 200;" fill="rgb(255, 255, 255)" stroke="none" stroke-width="1px">02 AM</text></g><g transform="translate(624.483630952381,0)" style="visibility: inherit;"><text transform="translate(0,14)" style="text-anchor: middle; font-family: Roboto, sans-serif; font-size: 12px; font-weight: 200;" fill="rgb(255, 255, 255)" stroke="none" stroke-width="1px">03 AM</text></g><g transform="translate(690.21875,0)" style="visibility: inherit;"><text transform="translate(0,14)" style="text-anchor: middle; font-family: Roboto, sans-serif; font-size: 12px; font-weight: 200;" fill="rgb(255, 255, 255)" stroke="none" stroke-width="1px">04 AM</text></g><g transform="translate(755.9538690476192,0)" style="visibility: inherit;"><text transform="translate(0,14)" style="text-anchor: middle; font-family: Roboto, sans-serif; font-size: 12px; font-weight: 200;" fill="rgb(255, 255, 255)" stroke="none" stroke-width="1px">05 AM</text></g><g transform="translate(821.6889880952381,0)" style="visibility: inherit;"><text transform="translate(0,14)" style="text-anchor: middle; font-family: Roboto, sans-serif; font-size: 12px; font-weight: 200;" fill="rgb(255, 255, 255)" stroke="none" stroke-width="1px">06 AM</text></g><g transform="translate(887.4241071428572,0)" style="visibility: inherit;"><text transform="translate(0,14)" style="text-anchor: middle; font-family: Roboto, sans-serif; font-size: 12px; font-weight: 200;" fill="rgb(255, 255, 255)" stroke="none" stroke-width="1px">07 AM</text></g><g transform="translate(953.1592261904761,0)" style="visibility: inherit;"><text transform="translate(0,14)" style="text-anchor: middle; font-family: Roboto, sans-serif; font-size: 12px; font-weight: 200;" fill="rgb(255, 255, 255)" stroke="none" stroke-width="1px">08 AM</text></g><g transform="translate(1018.8943452380953,0)" style="visibility: inherit;"><text transform="translate(0,14)" style="text-anchor: middle; font-family: Roboto, sans-serif; font-size: 12px; font-weight: 200;" fill="rgb(255, 255, 255)" stroke="none" stroke-width="1px">09 AM</text></g><g transform="translate(1084.6294642857142,0)" style="visibility: inherit;"><text transform="translate(0,14)" style="text-anchor: middle; font-family: Roboto, sans-serif; font-size: 12px; font-weight: 200;" fill="rgb(255, 255, 255)" stroke="none" stroke-width="1px">10 AM</text></g><g transform="translate(1150.3645833333335,0)" style="visibility: inherit;"><text transform="translate(0,14)" style="text-anchor: middle; font-family: Roboto, sans-serif; font-size: 12px; font-weight: 200;" fill="rgb(255, 255, 255)" stroke="none" stroke-width="1px">11 AM</text></g><g transform="translate(1216.0997023809523,0)" style="visibility: inherit;"><text transform="translate(0,14)" style="text-anchor: middle; font-family: Roboto, sans-serif; font-size: 12px; font-weight: 200;" fill="rgb(255, 255, 255)" stroke="none" stroke-width="1px">12 PM</text></g><g transform="translate(1281.8348214285716,0)" style="visibility: inherit;"><text transform="translate(0,14)" style="text-anchor: middle; font-family: Roboto, sans-serif; font-size: 12px; font-weight: 200;" fill="rgb(255, 255, 255)" stroke="none" stroke-width="1px">01 PM</text></g><g transform="translate(1347.5699404761904,0)" style="visibility: inherit;"><text transform="translate(0,14)" style="text-anchor: middle; font-family: Roboto, sans-serif; font-size: 12px; font-weight: 200;" fill="rgb(255, 255, 255)" stroke="none" stroke-width="1px">02 PM</text></g></g><g><line x1="0" y1="0" x2="0" y2="17" fill="rgb(0, 0, 0)" stroke="rgb(204, 204, 204)" stroke-width="1px"></line><line x1="65.73511904761905" y1="0" x2="65.73511904761905" y2="17" fill="rgb(0, 0, 0)" stroke="rgb(204, 204, 204)" stroke-width="1px"></line><line x1="131.4702380952381" y1="0" x2="131.4702380952381" y2="17" fill="rgb(0, 0, 0)" stroke="rgb(204, 204, 204)" stroke-width="1px"></line><line x1="197.20535714285714" y1="0" x2="197.20535714285714" y2="17" fill="rgb(0, 0, 0)" stroke="rgb(204, 204, 204)" stroke-width="1px"></line><line x1="262.9404761904762" y1="0" x2="262.9404761904762" y2="17" fill="rgb(0, 0, 0)" stroke="rgb(204, 204, 204)" stroke-width="1px"></line><line x1="328.67559523809524" y1="0" x2="328.67559523809524" y2="17" fill="rgb(0, 0, 0)" stroke="rgb(204, 204, 204)" stroke-width="1px"></line><line x1="394.4107142857143" y1="0" x2="394.4107142857143" y2="17" fill="rgb(0, 0, 0)" stroke="rgb(204, 204, 204)" stroke-width="1px"></line><line x1="460.1458333333333" y1="0" x2="460.1458333333333" y2="17" fill="rgb(0, 0, 0)" stroke="rgb(204, 204, 204)" stroke-width="1px"></line><line x1="525.8809523809524" y1="0" x2="525.8809523809524" y2="17" fill="rgb(0, 0, 0)" stroke="rgb(204, 204, 204)" stroke-width="1px"></line><line x1="591.6160714285714" y1="0" x2="591.6160714285714" y2="17" fill="rgb(0, 0, 0)" stroke="rgb(204, 204, 204)" stroke-width="1px"></line><line x1="657.3511904761905" y1="0" x2="657.3511904761905" y2="17" fill="rgb(0, 0, 0)" stroke="rgb(204, 204, 204)" stroke-width="1px"></line><line x1="723.0863095238095" y1="0" x2="723.0863095238095" y2="17" fill="rgb(0, 0, 0)" stroke="rgb(204, 204, 204)" stroke-width="1px"></line><line x1="788.8214285714286" y1="0" x2="788.8214285714286" y2="17" fill="rgb(0, 0, 0)" stroke="rgb(204, 204, 204)" stroke-width="1px"></line><line x1="854.5565476190476" y1="0" x2="854.5565476190476" y2="17" fill="rgb(0, 0, 0)" stroke="rgb(204, 204, 204)" stroke-width="1px"></line><line x1="920.2916666666666" y1="0" x2="920.2916666666666" y2="17" fill="rgb(0, 0, 0)" stroke="rgb(204, 204, 204)" stroke-width="1px"></line><line x1="986.0267857142858" y1="0" x2="986.0267857142858" y2="17" fill="rgb(0, 0, 0)" stroke="rgb(204, 204, 204)" stroke-width="1px"></line><line x1="1051.7619047619048" y1="0" x2="1051.7619047619048" y2="17" fill="rgb(0, 0, 0)" stroke="rgb(204, 204, 204)" stroke-width="1px"></line><line x1="1117.4970238095239" y1="0" x2="1117.4970238095239" y2="17" fill="rgb(0, 0, 0)" stroke="rgb(204, 204, 204)" stroke-width="1px"></line><line x1="1183.232142857143" y1="0" x2="1183.232142857143" y2="17" fill="rgb(0, 0, 0)" stroke="rgb(204, 204, 204)" stroke-width="1px"></line><line x1="1248.967261904762" y1="0" x2="1248.967261904762" y2="17" fill="rgb(0, 0, 0)" stroke="rgb(204, 204, 204)" stroke-width="1px"></line><line x1="1314.702380952381" y1="0" x2="1314.702380952381" y2="17" fill="rgb(0, 0, 0)" stroke="rgb(204, 204, 204)" stroke-width="1px"></line><line x1="1380.4375" y1="0" x2="1380.4375" y2="17" fill="rgb(0, 0, 0)" stroke="rgb(204, 204, 204)" stroke-width="1px"></line></g><line x1="0" y1="0" x2="1380.4375" y2="0" style="visibility: inherit;" fill="rgb(0, 0, 0)" stroke="rgb(204, 204, 204)" stroke-width="1px"></line></g><g visibility="inherit"><g><g transform="translate(197.20535714285714,0)" style="visibility: inherit;"><text transform="translate(0,31)" style="text-anchor: middle; font-family: Roboto, sans-serif; font-size: 12px; font-weight: 200;" fill="rgb(255, 255, 255)" stroke="none" stroke-width="1px">July  5, 2025</text></g><g transform="translate(887.4241071428572,0)" style="visibility: inherit;"><text transform="translate(0,31)" style="text-anchor: middle; font-family: Roboto, sans-serif; font-size: 12px; font-weight: 200;" fill="rgb(255, 255, 255)" stroke="none" stroke-width="1px">July  6, 2025</text></g></g><g><line x1="0" y1="17" x2="0" y2="34" fill="rgb(0, 0, 0)" stroke="rgb(204, 204, 204)" stroke-width="1px"></line><line x1="394.4107142857143" y1="17" x2="394.4107142857143" y2="34" fill="rgb(0, 0, 0)" stroke="rgb(204, 204, 204)" stroke-width="1px"></line><line x1="1380.4375" y1="17" x2="1380.4375" y2="34" fill="rgb(0, 0, 0)" stroke="rgb(204, 204, 204)" stroke-width="1px"></line></g><line x1="0" y1="17" x2="1380.4375" y2="17" style="visibility: inherit;" fill="rgb(0, 0, 0)" stroke="rgb(204, 204, 204)" stroke-width="1px"></line></g></g></g></g></g></svg>